<svg width="14" height="14" viewBox="0 0 14 14" fill="none" xmlns="http://www.w3.org/2000/svg">
<path fill-rule="evenodd" clip-rule="evenodd" d="M6.4375 10.9465L6.4015 7H5.03125V5.875H7.73238L7.76612 9.8215H9.025V10.9465H6.4375ZM6.15625 3.96925C6.1482 3.73109 6.23151 3.49886 6.38912 3.32013C6.54362 3.14763 6.76488 3.06175 7.05288 3.0625C7.34088 3.0625 7.56362 3.14875 7.72112 3.32125C7.87862 3.493 7.957 3.709 7.95625 3.96925C7.95625 4.22575 7.8775 4.43875 7.72 4.60825C7.5625 4.77775 7.34013 4.8625 7.05288 4.8625C6.76563 4.8625 6.54437 4.77775 6.38912 4.60825C6.23091 4.43391 6.14731 4.20451 6.15625 3.96925ZM7 12.625C8.49184 12.625 9.92258 12.0324 10.9775 10.9775C12.0324 9.92258 12.625 8.49184 12.625 7C12.625 5.50816 12.0324 4.07742 10.9775 3.02252C9.92258 1.96763 8.49184 1.375 7 1.375C5.50816 1.375 4.07742 1.96763 3.02252 3.02252C1.96763 4.07742 1.375 5.50816 1.375 7C1.375 8.49184 1.96763 9.92258 3.02252 10.9775C4.07742 12.0324 5.50816 12.625 7 12.625ZM7 13.75C6.11358 13.75 5.23583 13.5754 4.41689 13.2362C3.59794 12.897 2.85382 12.3998 2.22703 11.773C1.60023 11.1462 1.10303 10.4021 0.763813 9.58311C0.424594 8.76416 0.25 7.88642 0.25 7C0.25 6.11358 0.424594 5.23583 0.763813 4.41689C1.10303 3.59794 1.60023 2.85382 2.22703 2.22703C2.85382 1.60023 3.59794 1.10303 4.41689 0.763813C5.23583 0.424594 6.11358 0.25 7 0.25C8.79021 0.25 10.5071 0.961159 11.773 2.22703C13.0388 3.4929 13.75 5.20979 13.75 7C13.75 8.79021 13.0388 10.5071 11.773 11.773C10.5071 13.0388 8.79021 13.75 7 13.75Z" fill="#333333"/>
</svg>
