<svg width="19" height="18" viewBox="0 0 19 18" fill="none" xmlns="http://www.w3.org/2000/svg">
<g clip-path="url(#clip0_149_2)">
<path d="M12.714 0C12.7559 0 12.7978 0 12.842 0C12.9448 1.2694 12.4603 2.21789 11.8714 2.90476C11.2936 3.58688 10.5024 4.24845 9.22273 4.14807C9.13737 2.89685 9.62268 2.01871 10.2107 1.33342C10.7561 0.69477 11.756 0.126466 12.714 0Z" fill="black"/>
<path d="M16.5878 13.2125C16.5878 13.2251 16.5878 13.2362 16.5878 13.2481C16.2281 14.3373 15.7152 15.2707 15.0892 16.137C14.5177 16.9235 13.8174 17.9818 12.567 17.9818C11.4865 17.9818 10.7688 17.2871 9.66141 17.2681C8.49002 17.2491 7.84584 17.849 6.77484 18C6.65232 18 6.52981 18 6.40967 18C5.62321 17.8862 4.98851 17.2634 4.52612 16.7022C3.16266 15.0439 2.10905 12.9019 1.91302 10.1607C1.91302 9.89199 1.91302 9.62404 1.91302 9.3553C1.99602 7.39351 2.94925 5.79846 4.21628 5.02544C4.88497 4.61442 5.80421 4.26427 6.82779 4.42077C7.26647 4.48875 7.71463 4.63893 8.10747 4.78752C8.47975 4.93059 8.9453 5.18431 9.38635 5.17087C9.68512 5.16218 9.98232 5.00647 10.2835 4.8966C11.1656 4.57807 12.0303 4.2129 13.17 4.38442C14.5398 4.5915 15.512 5.20012 16.1127 6.13912C14.954 6.87658 14.0379 7.98789 14.1944 9.88567C14.3335 11.6096 15.3358 12.6181 16.5878 13.2125Z" fill="black"/>
</g>
<defs>
<clipPath id="clip0_149_2">
<rect width="18" height="18" fill="white" transform="translate(0.25)"/>
</clipPath>
</defs>
</svg>
