<svg width="24" height="24" viewBox="0 0 24 24" fill="none" xmlns="http://www.w3.org/2000/svg">
<path d="M21.5569 17.4922C22.0798 16.4353 22.3393 15.2677 22.3133 14.0889C22.2874 12.91 21.9768 11.7549 21.408 10.7221C20.8391 9.68926 20.029 8.80928 19.0466 8.1572C18.0642 7.50512 16.9387 7.10028 15.766 6.97718C15.3936 6.06869 14.842 5.2445 14.1441 4.55379C13.4463 3.86307 12.6165 3.31996 11.7042 2.95686C10.7919 2.59376 9.81586 2.4181 8.83424 2.44036C7.85261 2.46261 6.88553 2.68233 5.99065 3.08641C5.09577 3.49049 4.29144 4.07064 3.62562 4.79228C2.95979 5.51392 2.44612 6.36226 2.11523 7.2867C1.78435 8.21115 1.64302 9.19276 1.69969 10.173C1.75636 11.1532 2.00985 12.112 2.44506 12.9922L1.74287 15.3753C1.67516 15.6021 1.67004 15.843 1.72806 16.0725C1.78607 16.302 1.90507 16.5115 2.07244 16.6789C2.23981 16.8462 2.44933 16.9652 2.67881 17.0233C2.90829 17.0813 3.14919 17.0761 3.376 17.0084L5.76287 16.3062C6.53875 16.6892 7.37643 16.9314 8.23694 17.0216C8.6172 17.9507 9.1847 18.7915 9.90409 19.4918C10.6235 20.192 11.4793 20.7366 12.4184 21.0916C13.3574 21.4467 14.3595 21.6046 15.3622 21.5555C16.3649 21.5064 17.3468 21.2513 18.2466 20.8062L20.626 21.5084C20.8528 21.5762 21.0937 21.5813 21.3232 21.5233C21.5527 21.4652 21.7622 21.3462 21.9296 21.1789C22.0969 21.0115 22.2159 20.802 22.2739 20.5725C22.332 20.343 22.3268 20.1021 22.2591 19.8753L21.5569 17.4922ZM5.8135 15.1409C5.75988 15.1408 5.70653 15.1484 5.65506 15.1634L3.05162 15.9294C3.01936 15.9388 2.98515 15.9393 2.95259 15.931C2.92003 15.9227 2.89031 15.9057 2.86654 15.882C2.84277 15.8582 2.82583 15.8285 2.81749 15.7959C2.80915 15.7633 2.80971 15.7291 2.81912 15.6969L3.58506 13.0934C3.62625 12.9515 3.61044 12.7992 3.541 12.6687C2.84133 11.3603 2.63516 9.84393 2.96009 8.39614C3.28501 6.94835 4.11939 5.66554 5.31111 4.78154C6.50284 3.89755 7.97255 3.47124 9.45234 3.58033C10.9321 3.68943 12.3234 4.32666 13.3726 5.37586C14.4218 6.42507 15.0591 7.81638 15.1682 9.29616C15.2773 10.7759 14.8509 12.2457 13.967 13.4374C13.083 14.6291 11.8001 15.4635 10.3524 15.7884C8.90457 16.1133 7.38823 15.9072 6.07975 15.2075C5.99786 15.1637 5.90638 15.1408 5.8135 15.1409ZM20.4113 17.5934L21.1772 20.1969C21.1867 20.2291 21.1872 20.2633 21.1789 20.2959C21.1705 20.3285 21.1536 20.3582 21.1298 20.382C21.1061 20.4057 21.0763 20.4227 21.0438 20.431C21.0112 20.4393 20.977 20.4388 20.9447 20.4294L18.3413 19.6634C18.1994 19.6223 18.0471 19.6382 17.9166 19.7075C17.1898 20.096 16.3926 20.3354 15.572 20.4117C14.7513 20.4879 13.9237 20.3994 13.1377 20.1514C12.3517 19.9034 11.6232 19.5008 10.995 18.9674C10.3667 18.4339 9.85133 17.7803 9.47912 17.045C10.5309 16.9766 11.5555 16.6813 12.4824 16.1795C13.4093 15.6777 14.2167 14.9813 14.8491 14.138C15.4814 13.2947 15.9238 12.3246 16.1459 11.2942C16.3679 10.2638 16.3643 9.19762 16.1354 8.16875C17.0911 8.34745 17.9913 8.74888 18.7629 9.34048C19.5345 9.93208 20.1559 10.6972 20.5766 11.5738C20.9972 12.4504 21.2054 13.4138 21.1842 14.3859C21.163 15.3579 20.913 16.3113 20.4544 17.1687C20.3862 17.2997 20.3718 17.452 20.4141 17.5934H20.4113Z" fill="#707070"/>
</svg>
