<svg width="30" height="30" viewBox="0 0 30 30" fill="none" xmlns="http://www.w3.org/2000/svg">
<path d="M2.5 7.5C2.5 6.83696 2.76339 6.20107 3.23223 5.73223C3.70107 5.26339 4.33696 5 5 5H25C25.663 5 26.2989 5.26339 26.7678 5.73223C27.2366 6.20107 27.5 6.83696 27.5 7.5V22.5C27.5 23.163 27.2366 23.7989 26.7678 24.2678C26.2989 24.7366 25.663 25 25 25H5C4.33696 25 3.70107 24.7366 3.23223 24.2678C2.76339 23.7989 2.5 23.163 2.5 22.5V7.5ZM6.89875 7.5L15 14.5887L23.1013 7.5H6.89875ZM25 9.16125L15.8238 17.1912C15.5958 17.391 15.3031 17.5011 15 17.5011C14.6969 17.5011 14.4042 17.391 14.1762 17.1912L5 9.16125V22.5H25V9.16125Z" fill="#1A73E8"/>
</svg>
