<svg width="14" height="14" viewBox="0 0 14 14" fill="none" xmlns="http://www.w3.org/2000/svg">
<path d="M2.95 2.5002C2.83065 2.5002 2.71619 2.54761 2.6318 2.632C2.54741 2.71639 2.5 2.83085 2.5 2.9502C2.5 3.06954 2.54741 3.184 2.6318 3.26839C2.71619 3.35278 2.83065 3.4002 2.95 3.4002H11.05C11.1693 3.4002 11.2838 3.35278 11.3682 3.26839C11.4526 3.184 11.5 3.06954 11.5 2.9502C11.5 2.83085 11.4526 2.71639 11.3682 2.632C11.2838 2.54761 11.1693 2.5002 11.05 2.5002H2.95ZM3.85 7.9002C4.20804 7.9002 4.55142 7.75796 4.80459 7.50479C5.05777 7.25162 5.2 6.90824 5.2 6.5502C5.2 6.19215 5.05777 5.84878 4.80459 5.5956C4.55142 5.34243 4.20804 5.2002 3.85 5.2002C3.49195 5.2002 3.14858 5.34243 2.8954 5.5956C2.64223 5.84878 2.5 6.19215 2.5 6.5502C2.5 6.90824 2.64223 7.25162 2.8954 7.50479C3.14858 7.75796 3.49195 7.9002 3.85 7.9002ZM3.85 7.0002C3.73065 7.0002 3.61619 6.95279 3.5318 6.86839C3.44741 6.784 3.4 6.66954 3.4 6.5502C3.4 6.43085 3.44741 6.31639 3.5318 6.232C3.61619 6.14761 3.73065 6.1002 3.85 6.1002C3.96934 6.1002 4.0838 6.14761 4.1682 6.232C4.25259 6.31639 4.3 6.43085 4.3 6.5502C4.3 6.66954 4.25259 6.784 4.1682 6.86839C4.0838 6.95279 3.96934 7.0002 3.85 7.0002ZM5.2 10.1502C5.2 10.5082 5.05777 10.8516 4.80459 11.1048C4.55142 11.358 4.20804 11.5002 3.85 11.5002C3.49195 11.5002 3.14858 11.358 2.8954 11.1048C2.64223 10.8516 2.5 10.5082 2.5 10.1502C2.5 9.79215 2.64223 9.44878 2.8954 9.1956C3.14858 8.94243 3.49195 8.8002 3.85 8.8002C4.20804 8.8002 4.55142 8.94243 4.80459 9.1956C5.05777 9.44878 5.2 9.79215 5.2 10.1502ZM4.3 10.1502C4.3 10.0308 4.25259 9.91639 4.1682 9.832C4.0838 9.74761 3.96934 9.7002 3.85 9.7002C3.73065 9.7002 3.61619 9.74761 3.5318 9.832C3.44741 9.91639 3.4 10.0308 3.4 10.1502C3.4 10.2695 3.44741 10.384 3.5318 10.4684C3.61619 10.5528 3.73065 10.6002 3.85 10.6002C3.96934 10.6002 4.0838 10.5528 4.1682 10.4684C4.25259 10.384 4.3 10.2695 4.3 10.1502ZM6.1 6.5502C6.1 6.43085 6.14741 6.31639 6.2318 6.232C6.31619 6.14761 6.43065 6.1002 6.55 6.1002H11.05C11.1693 6.1002 11.2838 6.14761 11.3682 6.232C11.4526 6.31639 11.5 6.43085 11.5 6.5502C11.5 6.66954 11.4526 6.784 11.3682 6.86839C11.2838 6.95279 11.1693 7.0002 11.05 7.0002H6.55C6.43065 7.0002 6.31619 6.95279 6.2318 6.86839C6.14741 6.784 6.1 6.66954 6.1 6.5502ZM6.55 9.7002C6.43065 9.7002 6.31619 9.74761 6.2318 9.832C6.14741 9.91639 6.1 10.0308 6.1 10.1502C6.1 10.2695 6.14741 10.384 6.2318 10.4684C6.31619 10.5528 6.43065 10.6002 6.55 10.6002H11.05C11.1693 10.6002 11.2838 10.5528 11.3682 10.4684C11.4526 10.384 11.5 10.2695 11.5 10.1502C11.5 10.0308 11.4526 9.91639 11.3682 9.832C11.2838 9.74761 11.1693 9.7002 11.05 9.7002H6.55ZM3.4 0.700195C2.68391 0.700195 1.99716 0.984659 1.49081 1.49101C0.984461 1.99736 0.699997 2.68411 0.699997 3.4002V10.6002C0.699997 11.3163 0.984461 12.003 1.49081 12.5094C1.99716 13.0157 2.68391 13.3002 3.4 13.3002H10.6C11.3161 13.3002 12.0028 13.0157 12.5092 12.5094C13.0155 12.003 13.3 11.3163 13.3 10.6002V3.4002C13.3 2.68411 13.0155 1.99736 12.5092 1.49101C12.0028 0.984659 11.3161 0.700195 10.6 0.700195H3.4ZM1.6 3.4002C1.6 2.92281 1.78964 2.46497 2.1272 2.1274C2.46477 1.78984 2.92261 1.6002 3.4 1.6002H10.6C11.0774 1.6002 11.5352 1.78984 11.8728 2.1274C12.2104 2.46497 12.4 2.92281 12.4 3.4002V10.6002C12.4 11.0776 12.2104 11.5354 11.8728 11.873C11.5352 12.2106 11.0774 12.4002 10.6 12.4002H3.4C2.92261 12.4002 2.46477 12.2106 2.1272 11.873C1.78964 11.5354 1.6 11.0776 1.6 10.6002V3.4002Z" fill="#333333"/>
</svg>
