<svg width="14" height="18" viewBox="0 0 14 18" fill="none" xmlns="http://www.w3.org/2000/svg">
<path fill-rule="evenodd" clip-rule="evenodd" d="M5.45875 0.9375C4.4335 0.9375 3.60625 0.9375 2.956 1.02525C2.281 1.11525 1.7125 1.31025 1.261 1.761C0.8095 2.2125 0.616 2.781 0.52525 3.456C0.4375 4.10625 0.4375 4.9335 0.4375 5.95875V12.0413C0.4375 13.0665 0.4375 13.8938 0.52525 14.544C0.61525 15.219 0.81025 15.7875 1.261 16.239C1.7125 16.6905 2.281 16.884 2.956 16.9755C3.60625 17.0625 4.4335 17.0625 5.45875 17.0625H8.54125C9.5665 17.0625 10.3938 17.0625 11.044 16.9755C11.719 16.884 12.2875 16.6905 12.739 16.239C13.1905 15.7875 13.384 15.219 13.4755 14.544C13.5625 13.8938 13.5625 13.0665 13.5625 12.0413V5.95875C13.5625 4.9335 13.5625 4.10625 13.4755 3.456C13.384 2.781 13.1905 2.2125 12.739 1.761C12.2875 1.3095 11.719 1.116 11.044 1.02525C10.3938 0.9375 9.5665 0.9375 8.54125 0.9375H5.45875ZM2.0575 2.55675C2.26525 2.349 2.55625 2.214 3.1075 2.13975C3.673 2.064 4.4245 2.0625 5.50075 2.0625H8.50075C9.577 2.0625 10.3278 2.064 10.8948 2.13975C11.4453 2.214 11.7362 2.34975 11.944 2.55675C12.1517 2.7645 12.2868 3.0555 12.361 3.60675C12.4368 4.17225 12.4382 4.92375 12.4382 6V11.4375H3.8365C3.223 11.4375 2.8045 11.4375 2.44525 11.5335C2.1296 11.6188 1.83099 11.7579 1.5625 11.9445V6C1.5625 4.92375 1.564 4.17225 1.63975 3.606C1.714 3.0555 1.8505 2.7645 2.0575 2.55675ZM1.58275 13.6868C1.594 13.9523 1.612 14.1855 1.63975 14.394C1.714 14.9445 1.84975 15.2355 2.05675 15.4432C2.2645 15.651 2.5555 15.786 3.10675 15.8602C3.67225 15.936 4.42375 15.9375 5.5 15.9375H8.5C9.57625 15.9375 10.327 15.936 10.894 15.8602C11.4445 15.786 11.7355 15.6502 11.9432 15.4432C12.151 15.2355 12.286 14.9445 12.3602 14.3932C12.4225 13.932 12.4345 13.347 12.4368 12.5625H3.9235C3.19 12.5625 2.9335 12.567 2.73625 12.6202C2.47191 12.6912 2.22878 12.8253 2.02782 13.0111C1.82687 13.1969 1.67412 13.4288 1.58275 13.6868Z" fill="#333333"/>
</svg>
