<svg width="24" height="24" viewBox="0 0 24 24" fill="none" xmlns="http://www.w3.org/2000/svg">
<path d="M15 17C14.2 17.622 13.15 18 12 18C10.85 18 9.8 17.622 9 17" stroke="#707070" stroke-width="1.5" stroke-linecap="round" stroke-linejoin="round"/>
<path d="M2.35204 13.214C1.99804 10.916 1.82204 9.768 2.25604 8.749C2.69004 7.73 3.65404 7.034 5.58104 5.641L7.02104 4.6C9.41804 2.867 10.617 2 12.001 2C13.383 2 14.581 2.867 16.979 4.6L18.419 5.641C20.346 7.034 21.309 7.731 21.744 8.749C22.178 9.768 22.002 10.916 21.649 13.213L21.348 15.173C20.848 18.429 20.597 20.057 19.429 21.029C18.261 22.001 16.554 22 13.14 22H10.86C7.44504 22 5.73804 22 4.57004 21.029C3.40204 20.057 3.15204 18.429 2.65204 15.172L2.35204 13.214Z" stroke="#707070" stroke-width="1.5" stroke-linecap="round" stroke-linejoin="round"/>
</svg>
