<svg width="24" height="24" viewBox="0 0 24 24" fill="none" xmlns="http://www.w3.org/2000/svg">
<path d="M14.9961 14.9686V16.3746C14.9961 19.0266 14.9961 20.3516 14.1171 21.1756C13.2391 21.9996 11.8241 21.9996 8.99609 21.9996C6.16809 21.9996 4.75309 21.9996 3.87509 21.1756C2.99609 20.3526 2.99609 19.0256 2.99609 16.3756V11.5536C2.99609 8.90165 2.99609 7.57565 3.87509 6.75165C4.45709 6.20665 5.22309 6.05565 5.99609 6.01465M8.99609 18.9996H9.00509" stroke="#707070" stroke-width="1.5" stroke-linecap="round" stroke-linejoin="round"/>
<path d="M14.9962 3.5C12.8892 2.318 11.6212 2.09 9.99618 2C9.34918 2.117 9.14518 2.351 8.99618 3V9C8.99118 9.914 9.19418 10.256 9.99618 10.5C12.1732 10.848 13.2162 11.163 14.8732 11.942C14.9512 11.979 15.0432 11.98 15.1222 11.946C16.7212 11.26 17.7542 10.876 18.9402 10.653C19.6372 10.523 20.5032 10.513 20.8482 9.895C20.9702 9.678 21.0112 9.397 20.9962 9V3C20.7922 2.356 20.5732 2.139 19.9962 2C18.2402 2.097 17.1782 2.345 14.9962 3.5ZM14.9962 3.5V11.5" stroke="#707070" stroke-width="1.5" stroke-linecap="round" stroke-linejoin="round"/>
</svg>
