<svg width="11" height="11" viewBox="0 0 11 11" fill="none" xmlns="http://www.w3.org/2000/svg">
<path d="M6.41709 4.53717V3.75801C6.66917 3.65106 6.92706 3.57086 7.19076 3.51738C7.45445 3.46391 7.73128 3.43717 8.02126 3.43717C8.21987 3.43717 8.41466 3.45245 8.60563 3.48301C8.7966 3.51356 8.98376 3.55176 9.16709 3.59759V4.33092C8.98376 4.26217 8.79844 4.21054 8.61113 4.17601C8.42383 4.14148 8.2272 4.12437 8.02126 4.12467C7.73098 4.12467 7.45216 4.16104 7.1848 4.23376C6.91744 4.30648 6.66153 4.40762 6.41709 4.53717ZM6.41709 7.05801V6.27884C6.66917 6.1719 6.92706 6.09169 7.19076 6.03822C7.45445 5.98474 7.73128 5.95801 8.02126 5.95801C8.21987 5.95801 8.41466 5.97329 8.60563 6.00384C8.7966 6.0344 8.98376 6.07259 9.16709 6.11842V6.85176C8.98376 6.78301 8.79844 6.73137 8.61113 6.69684C8.42383 6.66231 8.2272 6.6452 8.02126 6.64551C7.73098 6.64551 7.45216 6.67988 7.1848 6.74863C6.91744 6.81738 6.66153 6.92051 6.41709 7.05801ZM6.41709 5.79759V5.01842C6.66917 4.91148 6.92706 4.83127 7.19076 4.7778C7.45445 4.72433 7.73128 4.69759 8.02126 4.69759C8.21987 4.69759 8.41466 4.71287 8.60563 4.74342C8.7966 4.77398 8.98376 4.81217 9.16709 4.85801V5.59134C8.98376 5.52259 8.79844 5.47095 8.61113 5.43642C8.42383 5.4019 8.2272 5.38479 8.02126 5.38509C7.73098 5.38509 7.45216 5.42145 7.1848 5.49417C6.91744 5.5669 6.66153 5.66804 6.41709 5.79759ZM2.97959 7.33301C3.33862 7.33301 3.68817 7.37319 4.02826 7.45355C4.36834 7.53391 4.70628 7.65415 5.04209 7.81426V3.29967C4.72889 3.11634 4.3966 2.97884 4.04521 2.88717C3.69383 2.79551 3.33862 2.74967 2.97959 2.74967C2.70459 2.74967 2.43142 2.77641 2.16009 2.82988C1.88876 2.88336 1.6272 2.96356 1.37542 3.07051V7.60801C1.64278 7.51634 1.90831 7.44759 2.17201 7.40176C2.4357 7.35592 2.70489 7.33301 2.97959 7.33301ZM5.95876 7.81426C6.29487 7.65384 6.63281 7.53345 6.97259 7.45309C7.31237 7.37273 7.66192 7.3327 8.02126 7.33301C8.29626 7.33301 8.5656 7.35592 8.8293 7.40176C9.09299 7.44759 9.35837 7.51634 9.62542 7.60801V3.07051C9.37334 2.96356 9.11163 2.88336 8.8403 2.82988C8.56896 2.77641 8.29595 2.74967 8.02126 2.74967C7.66223 2.74967 7.30702 2.79551 6.95563 2.88717C6.60424 2.97884 6.27195 3.11634 5.95876 3.29967V7.81426ZM5.50042 9.16634C5.13376 8.87606 4.73653 8.65072 4.30876 8.4903C3.88098 8.32988 3.43792 8.24967 2.97959 8.24967C2.65876 8.24967 2.34357 8.29169 2.03405 8.37572C1.72452 8.45974 1.42859 8.57815 1.14626 8.73092C0.985839 8.81495 0.831228 8.81113 0.682422 8.71947C0.533617 8.6278 0.459061 8.49412 0.458755 8.31842V2.79551C0.458755 2.71148 0.479839 2.63127 0.522005 2.55488C0.564172 2.47849 0.627117 2.4212 0.710839 2.38301C1.06223 2.19967 1.42889 2.06217 1.81084 1.97051C2.19278 1.87884 2.58237 1.83301 2.97959 1.83301C3.42264 1.83301 3.85623 1.8903 4.28034 2.00488C4.70445 2.11947 5.11114 2.29134 5.50042 2.52051C5.89001 2.29134 6.29685 2.11947 6.72096 2.00488C7.14508 1.8903 7.57851 1.83301 8.02126 1.83301C8.41848 1.83301 8.80806 1.87884 9.19001 1.97051C9.57195 2.06217 9.93862 2.19967 10.29 2.38301C10.374 2.4212 10.4371 2.47849 10.4793 2.55488C10.5215 2.63127 10.5424 2.71148 10.5421 2.79551V8.31842C10.5421 8.49412 10.4677 8.6278 10.3189 8.71947C10.1701 8.81113 10.0153 8.81495 9.85459 8.73092C9.57195 8.57815 9.27602 8.45974 8.9668 8.37572C8.65757 8.29169 8.34239 8.24967 8.02126 8.24967C7.56292 8.24967 7.11987 8.32988 6.69209 8.4903C6.26431 8.65072 5.86709 8.87606 5.50042 9.16634Z" fill="black" fill-opacity="0.5"/>
</svg>
