<svg width="30" height="30" viewBox="0 0 30 30" fill="none" xmlns="http://www.w3.org/2000/svg">
<path fill-rule="evenodd" clip-rule="evenodd" d="M13.75 25C13.75 24.6685 13.6183 24.3505 13.3839 24.1161C13.1495 23.8817 12.8315 23.75 12.5 23.75H6.25V6.25H12.5C12.8315 6.25 13.1495 6.1183 13.3839 5.88388C13.6183 5.64946 13.75 5.33152 13.75 5C13.75 4.66848 13.6183 4.35054 13.3839 4.11612C13.1495 3.8817 12.8315 3.75 12.5 3.75H6.25C5.58696 3.75 4.95107 4.01339 4.48223 4.48223C4.01339 4.95107 3.75 5.58696 3.75 6.25V23.75C3.75 24.413 4.01339 25.0489 4.48223 25.5178C4.95107 25.9866 5.58696 26.25 6.25 26.25H12.5C12.8315 26.25 13.1495 26.1183 13.3839 25.8839C13.6183 25.6495 13.75 25.3315 13.75 25Z" fill="#1A73E8"/>
<path d="M27.1425 15.8752C27.3711 15.6428 27.4995 15.33 27.5 15.004V14.9965C27.4993 14.6662 27.3676 14.3497 27.1338 14.1165L22.1338 9.11647C22.0184 8.99709 21.8805 8.90186 21.728 8.83635C21.5755 8.77084 21.4115 8.73635 21.2455 8.73491C21.0795 8.73347 20.9149 8.7651 20.7613 8.82795C20.6077 8.8908 20.4681 8.98361 20.3508 9.10098C20.2334 9.21835 20.1406 9.35791 20.0777 9.51153C20.0149 9.66515 19.9832 9.82975 19.9847 9.99573C19.9861 10.1617 20.0206 10.3257 20.0861 10.4782C20.1516 10.6307 20.2469 10.7687 20.3662 10.884L23.2325 13.7502H11.25C10.9185 13.7502 10.6005 13.8819 10.3661 14.1163C10.1317 14.3508 10 14.6687 10 15.0002C10 15.3317 10.1317 15.6497 10.3661 15.8841C10.6005 16.1185 10.9185 16.2502 11.25 16.2502H23.2325L20.3662 19.1165C20.1386 19.3522 20.0126 19.668 20.0154 19.9957C20.0183 20.3235 20.1497 20.637 20.3815 20.8687C20.6132 21.1005 20.9268 21.232 21.2545 21.2348C21.5822 21.2377 21.898 21.1117 22.1338 20.884L27.1338 15.884L27.1425 15.8752Z" fill="#1A73E8"/>
</svg>
