<svg width="16" height="14" viewBox="0 0 16 14" fill="none" xmlns="http://www.w3.org/2000/svg">
<path d="M10.4841 5.52344L7.10914 3.27344C7.04557 3.23102 6.97166 3.20667 6.89533 3.20299C6.81899 3.19931 6.74309 3.21643 6.67573 3.25253C6.60836 3.28863 6.55207 3.34235 6.51287 3.40795C6.47366 3.47355 6.45301 3.54857 6.45312 3.625V8.125C6.45301 8.20143 6.47366 8.27645 6.51287 8.34205C6.55207 8.40765 6.60836 8.46137 6.67573 8.49747C6.74309 8.53357 6.81899 8.55069 6.89533 8.54701C6.97166 8.54333 7.04557 8.51898 7.10914 8.47656L10.4841 6.22656C10.5422 6.18808 10.5897 6.13584 10.6227 6.0745C10.6556 6.01315 10.6728 5.94462 10.6728 5.875C10.6728 5.80538 10.6556 5.73685 10.6227 5.6755C10.5897 5.61416 10.5422 5.56192 10.4841 5.52344ZM7.29688 7.3368V4.4132L9.48922 5.875L7.29688 7.3368ZM14.1875 0.953125H1.8125C1.55143 0.953125 1.30105 1.05684 1.11644 1.24144C0.931836 1.42605 0.828125 1.67643 0.828125 1.9375V9.8125C0.828125 10.0736 0.931836 10.324 1.11644 10.5086C1.30105 10.6932 1.55143 10.7969 1.8125 10.7969H14.1875C14.4486 10.7969 14.699 10.6932 14.8836 10.5086C15.0682 10.324 15.1719 10.0736 15.1719 9.8125V1.9375C15.1719 1.67643 15.0682 1.42605 14.8836 1.24144C14.699 1.05684 14.4486 0.953125 14.1875 0.953125ZM14.3281 9.8125C14.3281 9.8498 14.3133 9.88556 14.2869 9.91194C14.2606 9.93831 14.2248 9.95312 14.1875 9.95312H1.8125C1.7752 9.95312 1.73944 9.93831 1.71306 9.91194C1.68669 9.88556 1.67188 9.8498 1.67188 9.8125V1.9375C1.67188 1.9002 1.68669 1.86444 1.71306 1.83806C1.73944 1.81169 1.7752 1.79688 1.8125 1.79688H14.1875C14.2248 1.79688 14.2606 1.81169 14.2869 1.83806C14.3133 1.86444 14.3281 1.9002 14.3281 1.9375V9.8125ZM15.1719 12.625C15.1719 12.7369 15.1274 12.8442 15.0483 12.9233C14.9692 13.0024 14.8619 13.0469 14.75 13.0469H1.25C1.13811 13.0469 1.03081 13.0024 0.951689 12.9233C0.872572 12.8442 0.828125 12.7369 0.828125 12.625C0.828125 12.5131 0.872572 12.4058 0.951689 12.3267C1.03081 12.2476 1.13811 12.2031 1.25 12.2031H14.75C14.8619 12.2031 14.9692 12.2476 15.0483 12.3267C15.1274 12.4058 15.1719 12.5131 15.1719 12.625Z" fill="#333333"/>
</svg>
