<svg width="338" height="225" viewBox="0 0 338 225" fill="none" xmlns="http://www.w3.org/2000/svg">
<path d="M300.572 67.6217L296.259 88.4792L293.483 85.7747L288.76 89.1407L285.15 84.6632L277.056 90.5402L270.139 78.9887L262.423 83.5022L259.363 79.2902L249.566 84.8027L246.618 78.4982L253.486 45.2837L290.306 52.8752L300.572 67.6217Z" fill="#EBEBEB"/>
<path d="M290.306 52.875L300.572 67.6215L287.8 64.989L290.306 52.875Z" fill="#DBDBDB"/>
<path d="M295.34 92.6462L289.017 123.246L239.421 113.022L245.699 82.6697L248.646 88.9697L258.448 83.4572L261.504 87.6692L269.224 83.1602L276.137 94.7117L284.235 88.8347L287.841 93.3077L292.568 89.9462L295.34 92.6462Z" fill="#EBEBEB"/>
<path d="M224.355 89.0596L173.813 92.1826L169.798 27.4006L207.329 25.0786L221.106 36.6211L224.355 89.0596Z" fill="#EBEBEB"/>
<path d="M207.329 25.0786L221.106 36.6211L208.091 37.4266L207.329 25.0786Z" fill="#DBDBDB"/>
<path d="M193.336 68.6701L193.138 67.2076C192.628 64.1791 193.458 60.7906 196.094 57.2491C198.474 54.0991 199.763 51.8491 199.618 49.2931C199.456 46.4131 197.541 44.5951 193.976 44.7391C191.939 44.8448 189.982 45.5667 188.365 46.8091L186.81 43.3306C188.613 41.8681 191.768 40.7881 194.765 40.6306C201.268 40.2706 204.431 44.1136 204.679 48.4021C204.896 52.2406 202.904 55.1251 200.371 58.4956C198.045 61.5691 197.284 64.1026 197.613 66.9691L197.753 68.4361L193.336 68.6701ZM192.534 76.6396C192.417 74.5516 193.746 73.0036 195.725 72.8956C197.703 72.7876 199.145 74.1736 199.262 76.2661C199.37 78.2416 198.158 79.8346 196.067 79.9516C194.071 80.0641 192.628 78.6151 192.516 76.6396H192.534Z" fill="#DBDBDB"/>
<path d="M66.915 57.6496L61.8315 55.3501L61.1239 56.9026C61.0194 57.1245 60.8564 57.3137 60.6524 57.4501C60.4483 57.5865 60.2109 57.6648 59.9657 57.6766C59.6863 57.6857 59.4079 57.7128 59.132 57.7576C58.8898 57.7935 58.6424 57.7631 58.4162 57.6696C58.19 57.576 57.9934 57.4229 57.8476 57.2266L56.8516 55.8361L52.3134 59.0851L53.3094 60.4756C53.4479 60.6763 53.5294 60.9107 53.5453 61.1539C53.5611 61.3972 53.5108 61.6401 53.3995 61.8571C53.271 62.1046 53.1552 62.3584 53.0525 62.6176C52.9632 62.8461 52.8132 63.0461 52.6187 63.1959C52.4242 63.3458 52.1924 63.4399 51.9483 63.4681L50.2493 63.6346L50.7946 69.1831L52.5027 69.0121C52.7476 68.9925 52.9933 69.04 53.2132 69.1494C53.4332 69.2589 53.6191 69.4261 53.751 69.6331C53.8231 69.7501 53.8997 69.8626 53.9808 69.9751C54.062 70.0876 54.1431 70.1956 54.2287 70.3036C54.3842 70.4925 54.4843 70.7208 54.5177 70.9631C54.5511 71.2054 54.5166 71.4522 54.418 71.6761L53.7059 73.2421L58.794 75.5461L59.5015 73.9846C59.607 73.7629 59.771 73.5741 59.9758 73.4385C60.1807 73.303 60.4187 73.2257 60.6642 73.2151C60.9405 73.2037 61.2158 73.1767 61.489 73.1341C61.7311 73.0982 61.9785 73.1286 62.2047 73.2221C62.431 73.3156 62.6275 73.4687 62.7734 73.6651L63.7693 75.0556L68.3121 71.8066L67.3161 70.4161C67.1733 70.2172 67.0892 69.9824 67.0732 69.7382C67.0573 69.494 67.1102 69.2503 67.2259 69.0346C67.3515 68.7885 67.4643 68.5362 67.5639 68.2786C67.6506 68.0483 67.7999 67.8468 67.9949 67.6966C68.1899 67.5463 68.4231 67.4534 68.6681 67.4281L70.3761 67.2571L69.8263 61.7086L68.1183 61.8751C67.8748 61.8964 67.6303 61.8502 67.4115 61.7414C67.1928 61.6326 67.0085 61.4655 66.8789 61.2586C66.8023 61.1416 66.7257 61.0291 66.6446 60.9166C66.5635 60.8041 66.4823 60.6916 66.3967 60.5881C66.2422 60.3968 66.143 60.1671 66.1096 59.9236C66.0763 59.6802 66.1101 59.4323 66.2074 59.2066L66.915 57.6496ZM64.0307 62.7841C64.5577 63.5184 64.8548 64.3923 64.8844 65.2953C64.914 66.1982 64.6747 67.0896 64.1969 67.8568C63.719 68.624 63.0241 69.2324 62.1999 69.6051C61.3758 69.9779 60.4594 70.0983 59.5668 69.951C58.6741 69.8037 57.8452 69.3953 57.185 68.7776C56.5248 68.1599 56.0628 67.3606 55.8575 66.4807C55.6523 65.6009 55.713 64.68 56.0319 63.8345C56.3508 62.9891 56.9137 62.2571 57.6493 61.7311C58.6354 61.0259 59.8617 60.7407 61.0584 60.9382C62.2551 61.1357 63.3242 61.7996 64.0307 62.7841Z" fill="#EBEBEB"/>
<path d="M296.71 131.27L293.321 133.223L293.92 134.258C294.01 134.406 294.054 134.577 294.049 134.75C294.043 134.924 293.988 135.092 293.889 135.234C293.785 135.396 293.686 135.563 293.596 135.738C293.522 135.893 293.405 136.024 293.259 136.115C293.112 136.206 292.943 136.253 292.771 136.251H291.581V140.162H292.78C292.952 140.159 293.121 140.207 293.268 140.298C293.414 140.388 293.531 140.519 293.605 140.675C293.695 140.85 293.794 141.017 293.898 141.179C293.997 141.321 294.052 141.489 294.058 141.662C294.063 141.835 294.019 142.007 293.929 142.155L293.33 143.19L296.719 145.143L297.323 144.104C297.41 143.956 297.537 143.836 297.689 143.756C297.841 143.677 298.012 143.641 298.184 143.654H298.76C298.932 143.642 299.103 143.678 299.254 143.757C299.406 143.837 299.533 143.956 299.621 144.104L300.225 145.148L303.61 143.195L303.01 142.155C302.925 142.006 302.883 141.836 302.89 141.664C302.896 141.492 302.95 141.326 303.046 141.183C303.15 141.021 303.249 140.85 303.339 140.679C303.413 140.524 303.53 140.393 303.676 140.302C303.823 140.211 303.992 140.164 304.164 140.166H305.363V136.256H304.155C303.983 136.258 303.814 136.21 303.667 136.12C303.521 136.029 303.404 135.898 303.33 135.743C303.24 135.572 303.141 135.401 303.037 135.239C302.941 135.096 302.887 134.929 302.881 134.758C302.874 134.586 302.916 134.416 303.001 134.267L303.601 133.227L300.216 131.274L299.612 132.3C299.525 132.447 299.398 132.568 299.246 132.647C299.094 132.727 298.923 132.762 298.751 132.75H298.463H298.175C298.003 132.762 297.831 132.726 297.679 132.646C297.526 132.567 297.398 132.447 297.309 132.3L296.71 131.27ZM298.463 135.005C299.098 135.004 299.719 135.191 300.247 135.543C300.776 135.894 301.188 136.395 301.431 136.98C301.675 137.566 301.738 138.211 301.615 138.832C301.491 139.454 301.185 140.026 300.736 140.474C300.287 140.922 299.715 141.228 299.092 141.351C298.47 141.475 297.824 141.411 297.237 141.168C296.651 140.925 296.15 140.513 295.798 139.986C295.445 139.458 295.258 138.838 295.259 138.204C295.258 137.783 295.341 137.367 295.501 136.978C295.662 136.59 295.898 136.236 296.196 135.939C296.493 135.641 296.847 135.405 297.236 135.244C297.625 135.083 298.042 135 298.463 135V135.005Z" fill="#EBEBEB"/>
<path d="M77.1992 41.0222L74.0941 43.3982L74.8107 44.3477C74.9176 44.483 74.9833 44.6461 75.0001 44.8176C75.0168 44.9891 74.984 45.1618 74.9053 45.3152C74.8191 45.4904 74.7438 45.6707 74.68 45.8552C74.6244 46.0178 74.5246 46.1616 74.3916 46.2705C74.2586 46.3794 74.0979 46.4491 73.9274 46.4717L72.7376 46.6247L73.2424 50.4992L74.4321 50.3462C74.6053 50.3221 74.7818 50.3474 74.9413 50.419C75.1007 50.4907 75.2367 50.6058 75.3335 50.7512C75.442 50.9078 75.5593 51.058 75.685 51.2012C75.8011 51.3287 75.8781 51.4868 75.9068 51.6567C75.9356 51.8266 75.9149 52.0012 75.8472 52.1597L75.3965 53.2667L79.0019 54.7652L79.4525 53.6582C79.5196 53.4994 79.6299 53.3626 79.7709 53.2631C79.9119 53.1637 80.0779 53.1057 80.2502 53.0957L80.5387 53.0642L80.8226 53.0192C80.9894 52.9878 81.1616 53.0027 81.3205 53.0622C81.4794 53.1217 81.6189 53.2236 81.7239 53.3567L82.4585 54.3152L85.5636 51.9392L84.838 50.9897C84.7332 50.8526 84.6688 50.6889 84.6521 50.5172C84.6354 50.3455 84.667 50.1725 84.7434 50.0177C84.8288 49.8437 84.904 49.6649 84.9687 49.4822C85.0242 49.3197 85.1241 49.1759 85.2571 49.067C85.3901 48.9581 85.5508 48.8884 85.7213 48.8657L86.9111 48.7127L86.4063 44.8382L85.2166 44.9912C85.0438 45.0158 84.8676 44.9913 84.7082 44.9204C84.5488 44.8496 84.4126 44.7353 84.3152 44.5907C84.2026 44.4287 84.0854 44.2757 83.9592 44.1407C83.8542 44.0105 83.7863 43.8545 83.7625 43.689C83.7387 43.5235 83.76 43.3547 83.824 43.2002L84.2747 42.0932L80.6693 40.5947L80.2187 41.7017C80.1507 41.8599 80.0402 41.9962 79.8994 42.0955C79.7586 42.1948 79.593 42.2532 79.421 42.2642L79.1326 42.2912L78.8667 42.3002C78.6999 42.3316 78.5277 42.3167 78.3688 42.2572C78.2099 42.1977 78.0703 42.0959 77.9653 41.9627L77.1992 41.0222ZM79.421 44.5007C80.0488 44.4201 80.6864 44.527 81.2534 44.8079C81.8204 45.0887 82.2914 45.5309 82.607 46.0787C82.9226 46.6266 83.0687 47.2555 83.0267 47.8861C82.9848 48.5167 82.7568 49.1208 82.3714 49.6221C81.9861 50.1235 81.4606 50.4996 80.8614 50.7032C80.2622 50.9067 79.616 50.9285 79.0044 50.7657C78.3928 50.603 77.8432 50.263 77.4249 49.7887C77.0066 49.3145 76.7383 48.7271 76.6539 48.1007C76.5976 47.6827 76.6246 47.2578 76.7333 46.8502C76.8421 46.4427 77.0305 46.0607 77.2877 45.7261C77.5448 45.3915 77.8657 45.111 78.2318 44.9007C78.5979 44.6904 79.0021 44.5545 79.421 44.5007Z" fill="#EBEBEB"/>
<path d="M53.9989 142.551C54.1682 138.201 54.108 133.845 53.8186 129.501C53.1738 120.531 51.8038 111.628 49.7221 102.879C48.5774 97.9561 47.1713 93.1141 45.7021 88.2766C45.657 88.1281 45.4227 88.1686 45.4633 88.3216C50.0015 105.377 53.724 122.972 53.4671 140.702C53.395 145.652 52.8181 150.534 52.3494 155.466C52.3494 155.597 52.5522 155.651 52.5838 155.516C53.5167 151.281 53.8231 146.862 53.9989 142.551Z" fill="#EBEBEB"/>
<path d="M45.4633 88.3081C45.4633 88.3081 38.5951 105.723 40.1319 109.8C41.6687 113.877 44.8413 114.75 44.8413 114.75C44.8413 114.75 40.6366 120.744 43.575 126.365C46.5133 131.985 53.039 131.72 53.4896 138.092C53.4761 138.123 53.8366 111.479 45.4633 88.3081Z" fill="#EBEBEB"/>
<path d="M52.728 127.121C52.7391 127.092 52.7391 127.06 52.728 127.031C51.8266 115.141 49.5923 103.39 46.0671 91.9982C46.0671 91.9667 45.9995 91.9757 46.0086 91.9982C47.3696 97.0982 48.5714 102.219 49.6139 107.361C48.6905 106.488 47.5625 105.86 46.333 105.534C46.333 105.534 46.297 105.561 46.333 105.57C47.6246 106.043 48.7859 106.814 49.7221 107.82C49.9203 108.833 50.1186 109.841 50.3034 110.853C48.7666 109.139 46.6395 108.288 44.5078 107.478C44.503 107.48 44.4989 107.484 44.496 107.488C44.4931 107.493 44.4916 107.498 44.4916 107.503C44.4916 107.508 44.4931 107.513 44.496 107.518C44.4989 107.522 44.503 107.526 44.5078 107.528C46.7296 108.428 48.9379 109.589 50.4431 111.501C50.9659 114.39 51.4256 117.29 51.8222 120.2C50.7125 119.039 49.2895 118.224 47.7256 117.855C47.676 117.855 47.649 117.914 47.6986 117.927C49.3051 118.4 50.7393 119.328 51.8267 120.6H51.8537C51.9889 121.62 52.1181 122.645 52.2413 123.674C51.3829 122.948 50.4137 122.365 49.3705 121.946C49.3435 121.946 49.3255 121.977 49.3705 121.986C50.4351 122.447 51.4099 123.091 52.2503 123.89C52.2503 123.89 52.2728 123.89 52.2863 123.89C52.399 124.866 52.5117 125.843 52.6108 126.819C51.0633 124.951 49.0549 123.518 46.7837 122.661C46.7741 122.661 46.765 122.665 46.7582 122.672C46.7515 122.678 46.7477 122.688 46.7477 122.697C46.7477 122.707 46.7515 122.716 46.7582 122.723C46.765 122.729 46.7741 122.733 46.7837 122.733C49.0264 123.72 50.9964 125.235 52.5252 127.148C52.542 127.169 52.5647 127.184 52.5904 127.192C52.6161 127.2 52.6436 127.2 52.6694 127.193C52.8181 128.691 52.9533 130.19 53.0615 131.693C53.0615 131.715 53.0975 131.715 53.0975 131.693C52.9804 130.184 52.8572 128.66 52.728 127.121Z" fill="white"/>
<path d="M47.2073 103.82C45.9635 103.047 44.5426 102.604 43.0792 102.533C43.0721 102.533 43.0652 102.536 43.0601 102.541C43.055 102.546 43.0522 102.553 43.0522 102.56C43.0522 102.567 43.055 102.574 43.0601 102.579C43.0652 102.584 43.0721 102.587 43.0792 102.587C44.494 102.855 45.867 103.309 47.1623 103.937C47.2164 103.95 47.2569 103.856 47.2073 103.82Z" fill="white"/>
<path d="M48.0411 122.256C47.0851 121.708 46.0324 121.349 44.9405 121.199C44.9044 121.199 44.8999 121.248 44.9405 121.257C46.0067 121.471 47.0381 121.831 48.005 122.328C48.0456 122.351 48.0816 122.279 48.0411 122.256Z" fill="white"/>
<path d="M72.0616 110.102C69.1561 112.107 66.4876 114.435 64.1073 117.041C61.6525 119.8 59.7591 123.009 58.5326 126.491C55.9223 133.744 54.5187 141.375 54.3774 149.081C54.2899 153.348 54.6997 157.611 55.5987 161.784C55.606 161.814 55.6247 161.841 55.651 161.858C55.6772 161.875 55.7089 161.881 55.7396 161.875C55.7703 161.869 55.7976 161.852 55.8159 161.827C55.8341 161.801 55.8419 161.77 55.8376 161.739C54.7189 154.375 54.7615 146.882 55.9638 139.532C57.1445 132.332 58.9968 124.493 63.5846 118.638C66.0813 115.448 69.1954 112.941 72.2734 110.349C72.4357 110.205 72.2284 109.985 72.0616 110.102Z" fill="#EBEBEB"/>
<path d="M55.3869 143.888C57.0408 141.216 58.9844 138.736 61.1825 136.49C64.6211 133.056 67.5144 130.617 67.965 128.349C68.4157 126.081 64.5219 124.407 64.5219 124.407C64.5219 124.407 69.2765 125.262 70.5789 123.269C71.8813 121.275 72.5078 109.728 72.5078 109.728C72.5078 109.728 63.855 115.898 59.8215 124.547C55.788 133.196 55.3869 143.888 55.3869 143.888Z" fill="#EBEBEB"/>
<path d="M69.4027 120.56C68.8329 120.475 68.2553 120.455 67.6811 120.501C67.6135 120.501 67.618 120.618 67.6811 120.623C68.249 120.623 68.8213 120.596 69.3892 120.623C69.3957 120.621 69.4015 120.618 69.4062 120.613C69.4108 120.608 69.414 120.602 69.4154 120.595C69.4168 120.589 69.4164 120.582 69.4141 120.576C69.4119 120.569 69.4079 120.564 69.4027 120.56Z" fill="white"/>
<path d="M63.188 131.76C62.2743 131.779 61.371 131.958 60.52 132.291C60.52 132.291 60.52 132.336 60.52 132.332C61.4214 132.12 62.2911 132.035 63.1835 131.882C63.1951 131.876 63.2051 131.868 63.2122 131.858C63.2194 131.847 63.2234 131.835 63.2239 131.822C63.2244 131.809 63.2213 131.797 63.2149 131.786C63.2086 131.775 63.1992 131.766 63.188 131.76Z" fill="white"/>
<path d="M61.3222 127.89C60.9429 127.887 60.5641 127.92 60.191 127.989C60.1841 127.992 60.1782 127.996 60.174 128.002C60.1698 128.008 60.1675 128.015 60.1675 128.023C60.1675 128.03 60.1698 128.037 60.174 128.043C60.1782 128.049 60.1841 128.054 60.191 128.057C60.5688 128.078 60.9478 128.062 61.3222 128.007C61.3378 128.007 61.3527 128.001 61.3636 127.99C61.3746 127.979 61.3808 127.964 61.3808 127.949C61.3808 127.933 61.3746 127.918 61.3636 127.907C61.3527 127.896 61.3378 127.89 61.3222 127.89Z" fill="white"/>
<path d="M30.0189 122.351C32.8352 123.304 35.534 124.574 38.0633 126.135C40.6877 127.8 42.9636 129.958 44.7647 132.489C48.5544 137.757 51.4559 143.607 53.3544 149.81C54.4133 153.244 55.0667 156.79 55.3013 160.376C55.2964 160.399 55.2836 160.42 55.2652 160.435C55.2467 160.45 55.2237 160.458 55.1999 160.458C55.1762 160.458 55.1531 160.45 55.1347 160.435C55.1162 160.42 55.1034 160.399 55.0985 160.376C54.303 154.159 52.536 148.105 49.8618 142.434C47.2344 136.877 43.922 130.964 38.8565 127.283C36.0984 125.28 32.9978 123.966 29.9063 122.58C29.744 122.526 29.8567 122.297 30.0189 122.351Z" fill="#EBEBEB"/>
<path d="M51.3354 145.845C49.3775 144.066 47.23 142.508 44.9315 141.197C41.3532 139.212 38.4464 137.907 37.5586 136.175C36.6707 134.442 39.4333 132.192 39.4333 132.192C39.4333 132.192 35.7829 133.992 34.2687 132.665C32.7545 131.337 29.5728 122.157 29.5728 122.157C29.5728 122.157 38.0047 125.15 43.264 131.22C48.5233 137.291 51.3354 145.845 51.3354 145.845Z" fill="#EBEBEB"/>
<path d="M44.3366 137.394C43.5076 137.336 42.6752 137.439 41.885 137.696C41.885 137.696 41.885 137.736 41.885 137.732C42.6912 137.594 43.5057 137.509 44.3231 137.48C44.3817 137.48 44.3952 137.399 44.3366 137.394Z" fill="white"/>
<path d="M36.9817 127.764C36.6036 127.733 36.2229 127.755 35.8505 127.827C35.81 127.827 35.8235 127.899 35.8505 127.895C36.2246 127.854 36.5896 127.868 36.9592 127.859C36.9707 127.859 36.982 127.856 36.9911 127.849C37.0003 127.842 37.0067 127.832 37.0094 127.821C37.012 127.81 37.0107 127.798 37.0057 127.788C37.0006 127.777 36.9922 127.769 36.9817 127.764Z" fill="white"/>
<path d="M62.21 171.981H43.1784L45.8914 152.132L46.5854 147.042H58.803L59.497 152.132L62.21 171.981Z" fill="#DBDBDB"/>
<path d="M59.497 152.132H45.8914L46.5854 147.042H58.803L59.497 152.132Z" fill="#C7C7C7"/>
<path d="M60.5471 145.278H44.8368V149.589H60.5471V145.278Z" fill="#DBDBDB"/>
<path d="M31.078 171.981L65.3331 171.873L99.5883 171.833L168.099 171.756L236.609 171.833L270.864 171.873L305.119 171.981L270.864 172.094L236.609 172.13L168.099 172.206L99.5883 172.13L65.3331 172.089L31.078 171.981Z" fill="#393939"/>
<path d="M169 205.519C240.369 205.519 298.224 199.189 298.224 191.38C298.224 183.572 240.369 177.241 169 177.241C97.6315 177.241 39.7758 183.572 39.7758 191.38C39.7758 199.189 97.6315 205.519 169 205.519Z" fill="#EBEBEB"/>
<path d="M138.918 189.04C137.868 189.396 107.759 189.49 106.605 188.779C106.155 188.509 105.898 184.131 105.704 178.83C105.663 177.687 105.632 176.503 105.605 175.306L103.203 159.268L123.334 159.138L125.231 175.18L125.155 178.708C125.155 178.708 136.701 183.816 137.881 184.743C139.062 185.67 139.968 188.685 138.918 189.04Z" fill="#EB9481"/>
<path d="M138.918 189.04C137.868 189.396 107.759 189.49 106.605 188.779C106.073 188.446 105.785 182.052 105.623 175.306L125.209 175.18L125.132 178.708C125.132 178.708 136.678 183.816 137.859 184.743C139.04 185.67 139.968 188.685 138.918 189.04Z" fill="white"/>
<path d="M138.918 189.04C137.868 189.396 107.759 189.49 106.605 188.779C106.155 188.509 105.898 184.131 105.704 178.83L125.114 178.708C125.114 178.708 136.66 183.816 137.841 184.743C139.022 185.67 139.968 188.685 138.918 189.04Z" fill="#A6A6A6"/>
<path d="M138.481 187.839C133.433 187.731 113.063 187.781 108.065 188.06C108.025 188.06 108.025 188.087 108.065 188.091C113.068 188.303 133.438 188.091 138.481 187.92C138.589 187.916 138.589 187.839 138.481 187.839Z" fill="#393939"/>
<path d="M135.917 183.668C135.355 183.655 134.798 183.759 134.279 183.973C133.76 184.186 133.291 184.505 132.902 184.91C132.193 185.631 131.792 186.599 131.784 187.61C131.784 187.641 131.838 187.641 131.843 187.61C132.01 186.614 132.496 185.699 133.227 185.002C133.958 184.304 134.895 183.861 135.899 183.74C135.908 183.742 135.918 183.74 135.927 183.735C135.935 183.73 135.941 183.722 135.944 183.713C135.946 183.703 135.944 183.693 135.939 183.684C135.934 183.676 135.926 183.67 135.917 183.668Z" fill="#393939"/>
<path d="M127.088 179.203C125.069 179.181 122.73 179.901 121.477 181.557C121.432 181.62 121.522 181.687 121.581 181.656C123.345 180.726 125.203 179.987 127.124 179.451C127.154 179.443 127.179 179.424 127.196 179.398C127.213 179.373 127.22 179.342 127.216 179.311C127.211 179.281 127.196 179.253 127.172 179.233C127.149 179.213 127.119 179.203 127.088 179.203Z" fill="#393939"/>
<path d="M128.656 179.802C126.633 179.802 124.294 180.504 123.046 182.156C122.996 182.223 123.086 182.29 123.149 182.259C124.911 181.326 126.768 180.585 128.688 180.049C128.717 180.041 128.743 180.023 128.759 179.998C128.776 179.973 128.784 179.942 128.78 179.912C128.776 179.882 128.761 179.854 128.739 179.834C128.716 179.814 128.687 179.802 128.656 179.802Z" fill="#393939"/>
<path d="M130.216 180.405C128.197 180.405 125.858 181.103 124.605 182.759C124.56 182.822 124.65 182.889 124.708 182.858C126.472 181.928 128.331 181.189 130.252 180.653C130.281 180.644 130.307 180.626 130.324 180.6C130.341 180.574 130.348 180.543 130.343 180.513C130.339 180.482 130.323 180.455 130.3 180.435C130.276 180.415 130.246 180.404 130.216 180.405Z" fill="#393939"/>
<path d="M131.779 181.008C129.756 180.986 127.417 181.706 126.169 183.362C126.119 183.425 126.214 183.492 126.272 183.461C128.036 182.53 129.894 181.791 131.816 181.256C131.845 181.247 131.871 181.229 131.888 181.203C131.905 181.177 131.912 181.146 131.907 181.116C131.903 181.085 131.887 181.058 131.864 181.038C131.84 181.018 131.81 181.007 131.779 181.008Z" fill="#393939"/>
<path d="M109.336 183.267C107.083 183.267 107.083 186.799 109.336 186.786C111.59 186.772 111.608 183.253 109.336 183.267Z" fill="#393939"/>
<path d="M129.256 173.813C128.233 172.967 126.944 173.813 126.317 174.681C125.275 176.216 124.653 177.997 124.515 179.847C124.515 179.888 124.546 179.906 124.578 179.906C124.586 179.944 124.603 179.979 124.627 180.009C124.652 180.039 124.684 180.063 124.719 180.079C124.755 180.094 124.794 180.101 124.833 180.098C124.872 180.095 124.91 180.083 124.943 180.063C126.376 179.069 128.034 178.178 129.121 176.769C129.738 175.95 130.243 174.6 129.256 173.813ZM126.795 178.106C126.101 178.614 125.384 179.087 124.708 179.622C125.069 178.614 125.38 177.597 125.84 176.625C126.052 176.159 126.296 175.708 126.57 175.275C127.02 174.605 128.985 172.913 129.193 175.104C129.31 176.306 127.62 177.503 126.795 178.106Z" fill="#393939"/>
<path d="M119.485 180.612C121.243 180.873 123.059 180.369 124.785 180.095C124.823 180.085 124.857 180.066 124.886 180.041C124.915 180.015 124.938 179.983 124.953 179.947C124.967 179.912 124.973 179.873 124.97 179.834C124.966 179.796 124.954 179.759 124.934 179.726C124.94 179.721 124.946 179.714 124.949 179.707C124.953 179.699 124.955 179.691 124.955 179.683C124.955 179.675 124.953 179.666 124.949 179.659C124.946 179.652 124.94 179.645 124.934 179.64C123.547 178.405 121.859 177.556 120.04 177.179C118.976 176.976 117.471 177.269 117.336 178.587C117.173 179.829 118.458 180.45 119.485 180.612ZM118.259 179.469C116.907 177.741 119.49 177.593 120.265 177.773C120.768 177.898 121.262 178.058 121.743 178.25C122.729 178.658 123.693 179.116 124.632 179.622C123.776 179.708 122.933 179.861 122.081 179.978C121.063 180.113 119.017 180.419 118.259 179.469Z" fill="#393939"/>
<path d="M73.6029 85.1399C73.6029 85.1399 96.979 124.848 97.6054 127.638C98.5653 131.922 103.653 174.226 103.653 174.226L127.989 173.776C127.989 173.776 123.798 136.476 119.828 124.186C116.971 115.335 96.339 85.9769 96.339 85.9769L73.6029 85.1399Z" fill="#8E8E8E"/>
<path d="M125.777 170.069C122.284 170.042 109.904 169.902 105.253 170.334C105.217 170.334 105.222 170.397 105.253 170.402C106.853 170.631 122.279 170.276 125.772 170.163C125.779 170.166 125.787 170.167 125.795 170.166C125.803 170.165 125.81 170.162 125.816 170.158C125.823 170.153 125.828 170.148 125.832 170.141C125.836 170.134 125.838 170.127 125.838 170.119C125.839 170.111 125.837 170.103 125.834 170.096C125.831 170.089 125.826 170.083 125.82 170.078C125.814 170.073 125.807 170.07 125.8 170.068C125.792 170.066 125.784 170.067 125.777 170.069Z" fill="#393939"/>
<path d="M77.5913 88.7849C79.1236 91.1834 80.746 93.5324 82.3053 95.9129C83.8646 98.2934 85.4329 100.674 86.9787 103.05C90.0612 107.85 93.0657 112.681 95.992 117.544C97.4202 119.799 98.6419 122.177 99.6424 124.65C100.556 127.124 101.242 129.675 101.693 132.273C102.171 134.878 102.486 137.511 102.779 140.143C103.08 142.942 103.393 145.743 103.721 148.545C104.361 154.278 105.002 160.011 105.645 165.744C105.722 166.446 105.799 167.148 105.871 167.854C105.871 167.958 105.695 167.976 105.681 167.854C104.965 162.162 104.37 156.447 103.721 150.754C103.396 147.913 103.073 145.074 102.752 142.236C102.45 139.594 102.162 136.948 101.752 134.325C101.375 131.735 100.803 129.178 100.039 126.675C99.1975 124.083 98.0699 121.593 96.677 119.25C93.8604 114.394 90.8769 109.624 87.8935 104.85C84.9101 100.075 81.8456 95.2604 78.6999 90.5444C78.3124 89.9639 77.9203 89.3834 77.5147 88.8119C77.4831 88.7804 77.5643 88.7399 77.5913 88.7849Z" fill="#393939"/>
<path d="M81.2642 191.381C80.1556 191.313 51.5202 179.73 50.727 178.632C50.6917 178.567 50.6761 178.494 50.682 178.421C50.682 177.435 52.6694 173.997 54.3279 169.479C54.4315 169.191 55.1706 167.85 56.1936 166.046C59.0373 161.1 63.9947 152.582 63.9947 152.582L82.7109 160.007L73.7516 173.394L72.359 176.634C72.359 176.634 81.1425 185.702 81.8816 186.984C82.6207 188.267 82.3684 191.444 81.2642 191.381Z" fill="#EB9481"/>
<path d="M81.2642 191.38C80.1556 191.313 51.5202 179.73 50.727 178.632C50.6917 178.567 50.6761 178.494 50.682 178.42C50.682 177.435 52.6694 173.997 54.3279 169.479C54.4315 169.191 55.1706 167.85 56.1936 166.045L73.7696 173.394L72.3771 176.634C72.3771 176.634 81.1606 185.701 81.8996 186.984C82.6387 188.266 82.3683 191.443 81.2642 191.38Z" fill="white"/>
<path d="M81.2642 191.381C80.1556 191.313 51.5202 179.73 50.727 178.632C50.4206 178.214 51.7005 174.312 54.3324 169.479L72.359 176.639C72.359 176.639 81.1425 185.697 81.8861 186.989C82.6297 188.28 82.3684 191.444 81.2642 191.381Z" fill="#A6A6A6"/>
<path d="M81.3093 190.103C76.6719 188.114 57.7709 180.527 53.0344 178.916C52.9939 178.916 52.9849 178.916 53.0344 178.943C57.5907 181.013 76.5502 188.447 81.2912 190.193C81.3814 190.215 81.4084 190.143 81.3093 190.103Z" fill="#393939"/>
<path d="M80.4981 185.274C79.9838 185.048 79.4283 184.932 78.8667 184.932C78.305 184.932 77.7495 185.048 77.2352 185.274C76.3107 185.678 75.5778 186.423 75.1892 187.353C75.1892 187.38 75.2298 187.402 75.2433 187.375C75.7746 186.513 76.5716 185.845 77.5149 185.473C78.4582 185.1 79.497 185.043 80.4755 185.31C80.4831 185.308 80.4896 185.303 80.4938 185.296C80.498 185.29 80.4995 185.282 80.4981 185.274Z" fill="#393939"/>
<path d="M73.995 177.831C72.1337 177.052 69.6911 176.845 67.911 177.912C67.8434 177.952 67.911 178.047 67.9695 178.042C69.954 177.841 71.9542 177.852 73.9364 178.074C73.9669 178.077 73.9975 178.069 74.0226 178.052C74.0477 178.034 74.0655 178.008 74.0727 177.978C74.0799 177.948 74.076 177.917 74.0616 177.89C74.0473 177.863 74.0236 177.842 73.995 177.831Z" fill="#393939"/>
<path d="M75.2163 178.974C73.355 178.195 70.9124 177.988 69.1323 179.055C69.0647 179.095 69.1323 179.19 69.1909 179.185C71.1752 178.982 73.1756 178.993 75.1577 179.217C75.1882 179.22 75.2188 179.212 75.2439 179.195C75.269 179.177 75.2868 179.151 75.294 179.121C75.3012 179.091 75.2973 179.06 75.2829 179.033C75.2686 179.006 75.2449 178.985 75.2163 178.974Z" fill="#393939"/>
<path d="M76.4421 180.117C74.5763 179.339 72.1337 179.132 70.3581 180.198C70.286 180.238 70.3581 180.333 70.4122 180.329C72.3965 180.125 74.3969 180.136 76.379 180.36C76.4101 180.365 76.442 180.359 76.4685 180.341C76.495 180.324 76.5141 180.298 76.522 180.267C76.5299 180.237 76.5261 180.204 76.5113 180.177C76.4965 180.149 76.4718 180.128 76.4421 180.117Z" fill="#393939"/>
<path d="M77.6634 181.26C75.7976 180.481 73.3595 180.274 71.5794 181.336C71.5073 181.381 71.5794 181.476 71.6335 181.471C73.6178 181.268 75.6182 181.279 77.6003 181.503C77.6314 181.508 77.6634 181.502 77.6898 181.484C77.7163 181.467 77.7354 181.441 77.7433 181.41C77.7512 181.38 77.7474 181.347 77.7326 181.32C77.7178 181.292 77.6931 181.271 77.6634 181.26Z" fill="#393939"/>
<path d="M56.0089 174.947C53.9043 174.11 52.5973 177.381 54.7109 178.218C56.8246 179.055 58.136 175.784 56.0089 174.947Z" fill="#393939"/>
<path d="M78.0284 173.646C77.393 172.481 75.8923 172.769 74.9774 173.349C73.4363 174.38 72.1931 175.797 71.3721 177.458C71.3685 177.465 71.3666 177.473 71.3665 177.481C71.3664 177.489 71.3682 177.497 71.3716 177.504C71.3751 177.512 71.3802 177.518 71.3865 177.523C71.3928 177.529 71.4002 177.532 71.4081 177.534C71.4081 177.683 71.5073 177.858 71.6831 177.822C73.3911 177.431 75.2613 177.228 76.7936 176.328C77.6724 175.806 78.6278 174.749 78.0284 173.646ZM74.1302 176.702C73.2964 176.913 72.4582 177.084 71.6335 177.327C72.3156 176.506 73.0391 175.721 73.8012 174.974C74.1763 174.617 74.5753 174.286 74.9955 173.984C75.6489 173.534 78.1186 172.701 77.4876 174.812C77.1406 175.977 75.1262 176.45 74.1302 176.702Z" fill="#393939"/>
<path d="M66.4147 176.288C67.947 177.188 69.8173 177.399 71.5208 177.795C71.6965 177.836 71.8137 177.66 71.8002 177.507C71.8086 177.506 71.8167 177.503 71.8236 177.498C71.8306 177.493 71.8361 177.487 71.8397 177.479C71.8434 177.471 71.8449 177.463 71.8443 177.454C71.8437 177.446 71.8409 177.438 71.8362 177.431C71.0165 175.766 69.7732 174.346 68.2309 173.313C67.3296 172.728 65.8199 172.436 65.1799 173.597C64.54 174.758 65.5179 175.761 66.4147 176.288ZM65.7117 174.767C65.0853 172.656 67.5504 173.493 68.2039 173.948C68.6235 174.251 69.0211 174.583 69.3936 174.942C70.1542 175.691 70.8762 176.478 71.5568 177.3C70.7321 177.057 69.8939 176.882 69.0601 176.67C68.0506 176.4 66.0542 175.95 65.7117 174.767Z" fill="#393939"/>
<path d="M75.2073 172.647L54.2558 164.2C54.2558 164.2 80.2322 126.063 80.4215 123.223C80.5927 120.712 69.1818 98.8334 68.7357 92.4569C68.249 85.5719 71.5659 80.2484 75.2163 76.9409L96.8257 86.1164C96.8257 86.1164 94.5454 89.7569 90.9671 91.7864C90.9671 91.7864 102.049 117.076 101.418 124.852C100.787 132.628 75.2073 172.647 75.2073 172.647Z" fill="#8E8E8E"/>
<path d="M76.1356 168.669C73.1071 167.368 73.995 167.697 70.9484 166.419C69.4612 165.798 59.6818 161.734 58.1766 161.397C58.145 161.397 58.1225 161.442 58.154 161.46C59.4564 162.256 69.317 166.149 70.8178 166.743C73.8868 167.949 73.017 167.571 76.0996 168.741C76.1042 168.747 76.1103 168.752 76.1173 168.755C76.1243 168.758 76.132 168.759 76.1397 168.759C76.1473 168.758 76.1547 168.755 76.161 168.751C76.1674 168.747 76.1725 168.741 76.1759 168.734C76.1794 168.727 76.181 168.72 76.1806 168.712C76.1803 168.704 76.178 168.697 76.174 168.69C76.1699 168.684 76.1643 168.678 76.1576 168.675C76.1509 168.671 76.1433 168.669 76.1356 168.669Z" fill="#393939"/>
<path d="M94.5093 91.3231C92.2595 91.8467 90.0584 92.5603 87.9296 93.4561C87.921 93.459 87.9131 93.4637 87.9063 93.4697C87.8995 93.4757 87.8939 93.483 87.8899 93.4911C87.886 93.4993 87.8836 93.5081 87.8831 93.5172C87.8825 93.5262 87.8838 93.5353 87.8867 93.5438C87.8897 93.5524 87.8943 93.5603 87.9003 93.5671C87.9064 93.5739 87.9137 93.5794 87.9218 93.5834C87.93 93.5874 87.9388 93.5897 87.9479 93.5902C87.957 93.5908 87.966 93.5895 87.9746 93.5866C90.1829 92.9431 92.4272 92.3401 94.5994 91.5796C94.7662 91.5211 94.6806 91.2871 94.5093 91.3231Z" fill="#393939"/>
<path d="M91.936 90.4501C91.726 90.823 91.5408 91.2094 91.3817 91.6066C91.2261 91.9081 91.1298 92.2365 91.0978 92.5741C91.0978 92.6416 91.1879 92.6551 91.2285 92.6146C91.4546 92.3446 91.637 92.0409 91.7693 91.7146C91.954 91.3591 92.1433 91.0081 92.3191 90.6436C92.4408 90.3781 92.0757 90.2071 91.936 90.4501Z" fill="#393939"/>
<path d="M92.2064 88.407C92.3416 88.074 92.4723 87.7455 92.612 87.4125C92.7517 87.0795 92.9275 86.7375 93.0627 86.3865C93.0627 86.3325 93.1708 86.3865 93.1483 86.427C93.0131 86.76 92.9275 87.111 92.8238 87.453C92.7202 87.795 92.603 88.137 92.4903 88.479C92.2785 89.1135 92.0397 89.7435 91.7467 90.36C92.1014 90.3777 92.4555 90.3162 92.7833 90.18C93.1181 89.966 93.3755 89.6506 93.5179 89.28C93.7071 88.911 93.8829 88.533 94.0767 88.164C94.3152 87.7651 94.5159 87.3447 94.6761 86.9085C94.6761 86.8545 94.7842 86.9085 94.7617 86.949C94.4678 87.8713 94.0829 88.7622 93.6125 89.6085C93.4097 89.937 93.252 90.2835 92.8824 90.4095C92.4824 90.5212 92.0638 90.5503 91.6521 90.495C91.598 90.495 91.5349 90.495 91.5529 90.414C91.7375 89.7346 91.9556 89.0648 92.2064 88.407Z" fill="#393939"/>
<path d="M91.287 92.6101C92.0577 94.2346 92.7337 95.8546 93.4502 97.4746C94.1668 99.0946 94.8022 100.661 95.4467 102.272C96.7356 105.521 97.8893 108.833 98.9033 112.172C99.4036 113.828 99.8677 115.497 100.282 117.18C100.739 118.858 101.073 120.566 101.283 122.292C101.464 124.015 101.311 125.757 100.832 127.422C100.335 129.068 99.6974 130.669 98.9258 132.206C98.4526 133.178 98.2949 133.047 98.5202 132.557C99.1647 131.162 100.855 126.936 100.733 123.386C100.634 121.686 100.372 120 99.9489 118.35C99.5553 116.649 99.1121 114.962 98.6194 113.288C97.6595 109.985 96.5193 106.749 95.3476 103.518C94.6896 101.718 93.9956 99.9181 93.3196 98.1181C92.6436 96.3181 91.9676 94.6621 91.2104 92.6731C91.1879 92.5921 91.2645 92.5606 91.287 92.6101Z" fill="#393939"/>
<path d="M75.383 87.2414C75.7571 87.1019 76.2843 87.3314 76.6629 87.3944C77.1532 87.4775 77.6486 87.5271 78.1456 87.5429C78.6374 87.5602 79.1298 87.5437 79.6193 87.4934C80.1123 87.4807 80.5954 87.3528 81.0299 87.1199C81.7428 86.6014 82.3539 85.9561 82.8325 85.2164C83.403 84.4606 83.874 83.6349 84.2341 82.7594C84.2341 82.7054 84.3288 82.7594 84.3107 82.7954C84.153 83.2949 84.0358 83.7989 83.8601 84.2894C83.6658 84.7503 83.4336 85.1943 83.166 85.6169C82.7321 86.4674 82.0904 87.1948 81.3003 87.7319C80.4305 88.2269 79.3128 88.1819 78.3439 88.1414C77.7819 88.1087 77.2231 88.035 76.6719 87.9209C76.2753 87.8354 75.6083 87.7724 75.356 87.4259C75.3441 87.4127 75.3353 87.397 75.3302 87.3799C75.325 87.3629 75.3237 87.345 75.3263 87.3274C75.3289 87.3098 75.3353 87.2929 75.3451 87.2781C75.3549 87.2632 75.3678 87.2507 75.383 87.2414Z" fill="#393939"/>
<path d="M60.2361 160.2C63.6792 154.992 67.0592 149.742 70.3761 144.45C73.693 139.158 76.9649 133.825 80.1916 128.452C80.9623 127.17 81.8501 125.892 82.3458 124.47C82.8866 122.926 82.5802 121.428 82.0934 119.916C81.1744 117.158 80.1001 114.453 78.8757 111.816C77.6679 109.156 76.3655 106.542 75.0856 103.918C73.8057 101.295 72.4672 98.703 71.4802 95.967C70.5789 93.3525 70.2139 90.6435 70.9169 87.9345C71.6199 85.2255 73.1342 82.8315 74.716 80.577C75.1306 79.983 75.5588 79.3935 75.9779 78.777C76.0094 78.732 76.077 78.777 76.0455 78.831C74.3014 81.18 72.6024 83.6685 71.5794 86.427C71.0565 87.7867 70.7641 89.2238 70.7141 90.6795C70.7056 92.157 70.9354 93.6263 71.3946 95.031C72.2419 97.767 73.5803 100.354 74.8287 102.928C76.077 105.502 77.411 108.166 78.6413 110.817C79.9106 113.485 81.0388 116.217 82.0213 119.002C82.4405 120.24 82.9227 121.536 82.8866 122.863C82.8551 124.317 82.161 125.626 81.44 126.85C78.2853 132.183 75.054 137.452 71.7642 142.69C68.4743 147.928 65.0898 153.166 61.6647 158.35L60.3668 160.308C60.2992 160.389 60.182 160.294 60.2361 160.2Z" fill="#393939"/>
<path d="M98.0245 61.8616C99.9759 66.1366 109.832 72.0271 114.447 72.6616C117.764 73.1116 127.85 73.2736 131.306 72.7471C135.362 72.1261 132.262 61.2136 129.869 61.4971C123.289 62.2621 117.701 63.1171 115.943 63.1171C113.798 63.1171 102.193 59.4001 100.796 58.8736C97.371 57.6001 96.9204 59.4361 98.0245 61.8616Z" fill="#EB9481"/>
<path d="M98.0876 63C100.557 66.6495 108.764 72.6165 108.764 72.6165L109.904 70.0965L113.676 61.7625C113.676 61.7625 106.137 59.4 101.175 58.32C100.591 58.1873 99.9968 58.103 99.399 58.068C96.2308 57.897 95.9559 59.85 98.0876 63Z" fill="#1A73E8"/>
<path d="M98.0876 62.9999C100.557 66.6494 108.764 72.6164 108.764 72.6164L109.904 70.0964C106.844 66.5459 102.117 61.1684 99.399 58.0769C96.2308 57.8969 95.9559 59.8499 98.0876 62.9999Z" fill="#393939"/>
<path d="M107.286 70.9245C107.912 69.39 110.697 63.2115 111.391 61.9245C111.436 61.8345 111.508 61.8435 111.468 61.9245C110.26 64.9971 108.885 68.0015 107.349 70.9245C107.331 70.9785 107.259 70.9605 107.286 70.9245Z" fill="#393939"/>
<path d="M128.661 61.6095C132.663 61.0875 137.616 60.192 141.811 61.9695C142.283 62.154 142.678 62.4917 142.933 62.928C144.826 63.693 145.034 64.8135 145.034 64.8135C146.579 66.0645 146.633 67.2435 146.633 67.2435C146.633 67.2435 148.851 68.1435 148.513 69.5925C148.143 71.1945 145.106 69.5925 142.897 69.723C137.827 70.038 130.729 71.8965 129.265 72.1305L128.661 61.6095Z" fill="#EB9481"/>
<path d="M137.354 66.3255C138.837 66.2243 140.324 66.2243 141.807 66.3255C143.421 66.5278 145.018 66.8512 146.584 67.293C146.594 67.2966 146.605 67.296 146.615 67.2913C146.625 67.2867 146.632 67.2784 146.636 67.2683C146.639 67.2581 146.639 67.247 146.634 67.2372C146.629 67.2275 146.621 67.2201 146.611 67.2165C143.669 66.0641 140.467 65.7404 137.354 66.2805C137.282 66.2715 137.282 66.33 137.354 66.3255Z" fill="#393939"/>
<path d="M136.412 61.65C138.886 61.776 140.432 62.172 142.92 62.919V62.892C140.18 61.749 139.058 61.641 136.399 61.542C136.313 61.578 136.318 61.65 136.412 61.65Z" fill="#393939"/>
<path d="M136.813 70.488C136.169 70.7895 136.327 71.127 137.557 71.4105C138.787 71.694 143.902 71.7795 143.722 73.5615C143.542 75.3435 136.327 75.1185 134.312 74.4885C132.298 73.8585 129.265 72.1305 129.265 72.1305C130.693 71.892 134.046 70.9875 136.813 70.488Z" fill="#EB9481"/>
<path d="M103.383 68.6746C103.351 69.4441 103.279 70.2271 103.171 71.0056C103.171 70.9741 103.171 70.9471 103.203 70.9201C103.351 70.5151 103.5 70.1011 103.68 69.7096C103.68 69.7096 103.725 69.7096 103.721 69.7096C103.634 70.1386 103.504 70.5577 103.333 70.9606C103.252 71.1541 103.176 71.3431 103.09 71.5321C103.036 71.8786 102.973 72.2206 102.905 72.5626C102.77 73.2061 102.162 75.9421 102.004 76.4056C101.977 76.5001 101.86 76.4776 101.869 76.3696C101.9 75.8656 102.409 73.0171 102.513 72.3691C102.714 71.1179 102.984 69.8786 103.32 68.6566C103.342 68.6341 103.387 68.6521 103.383 68.6746Z" fill="#393939"/>
<path d="M98.696 89.136C97.4927 89.7525 95.9424 90.711 88.9571 89.3385C88.5064 89.2485 88.0828 89.1405 87.6412 89.01C81.093 87.048 73.2198 79.3575 72.7917 78.813C72.7917 78.813 83.1976 61.9695 96.5058 56.673C98.1507 56.0205 100.873 57.2805 102.364 58.851C102.901 59.4135 104.068 63.549 103.622 66.897C103.176 70.245 99.8948 88.5195 98.696 89.136Z" fill="#1A73E8"/>
<path d="M97.7586 66.7439C97.8089 67.4557 97.7091 68.17 97.4657 68.8409C97.4085 68.1289 97.5085 67.4131 97.7586 66.7439Z" fill="white"/>
<path d="M93.2204 78.2144C93.2491 78.5686 93.237 78.9249 93.1843 79.2764C93.141 79.6305 93.0547 79.978 92.9275 80.3114C92.8964 79.9557 92.9085 79.5976 92.9635 79.2449C93.0096 78.8927 93.0958 78.547 93.2204 78.2144Z" fill="white"/>
<path d="M85.5095 69.543C85.5603 70.2562 85.4605 70.9722 85.2166 71.6445C85.1599 70.931 85.2599 70.2138 85.5095 69.543Z" fill="white"/>
<path d="M100.729 77.6294C100.757 77.9851 100.745 78.3429 100.692 78.6959C100.649 79.05 100.563 79.3975 100.436 79.7309C100.405 79.3752 100.417 79.0171 100.472 78.6644C100.517 78.3107 100.603 77.9634 100.729 77.6294Z" fill="white"/>
<path d="M90.8274 68.058C91.1819 68.0279 91.5388 68.0384 91.8909 68.0895C92.2457 68.1344 92.5938 68.222 92.9275 68.3505C92.2146 68.4016 91.499 68.3019 90.8274 68.058Z" fill="white"/>
<path d="M82.0754 76.3425C82.7882 76.2923 83.5037 76.3919 84.1755 76.635C83.4625 76.692 82.7456 76.5922 82.0754 76.3425Z" fill="white"/>
<path d="M92.3867 85.3109C93.0995 85.2598 93.8151 85.3594 94.4868 85.6034C93.7738 85.6596 93.0571 85.5597 92.3867 85.3109Z" fill="white"/>
<path d="M79.3759 82.0529C80.0887 82.0027 80.8042 82.1024 81.476 82.3454C80.763 82.4016 80.0463 82.3018 79.3759 82.0529Z" fill="white"/>
<path d="M97.691 58.6799C98.4038 58.6297 99.1193 58.7293 99.7911 58.9724C99.0783 59.0226 98.3629 58.9229 97.691 58.6799Z" fill="white"/>
<path d="M95.1448 61.551C94.9169 61.8245 94.6566 62.0693 94.3696 62.28C94.0904 62.4957 93.7881 62.6798 93.4683 62.829C93.6946 62.5573 93.9517 62.3127 94.2344 62.1C94.5163 61.8836 94.8217 61.6994 95.1448 61.551Z" fill="white"/>
<path d="M81.2687 69.7095C81.0381 69.9806 80.7764 70.2237 80.4891 70.434C80.2126 70.6537 79.9099 70.8381 79.5877 70.983C79.8196 70.713 80.0811 70.47 80.3674 70.2585C80.6445 70.0397 80.9471 69.8554 81.2687 69.7095Z" fill="white"/>
<path d="M98.5969 73.3904C98.3663 73.6629 98.1047 73.9076 97.8172 74.1194C97.5401 74.3381 97.2375 74.5225 96.9159 74.6684C97.1464 74.3959 97.4081 74.1512 97.6955 73.9394C97.9741 73.7228 98.2765 73.5386 98.5969 73.3904Z" fill="white"/>
<path d="M87.3753 80.4465C87.1447 80.719 86.883 80.9637 86.5956 81.1755C86.3181 81.3936 86.0155 81.5779 85.6943 81.7245C85.9248 81.452 86.1865 81.2074 86.4739 80.9955C86.7525 80.779 87.0549 80.5948 87.3753 80.4465Z" fill="white"/>
<path d="M102.896 63.7515C102.666 64.024 102.404 64.2686 102.117 64.4805C101.837 64.6961 101.535 64.8802 101.215 65.0295C101.446 64.757 101.707 64.5123 101.995 64.3005C102.272 64.0823 102.575 63.898 102.896 63.7515Z" fill="white"/>
<path d="M102.662 71.928C102.389 71.6978 102.144 71.4365 101.932 71.1495C101.712 70.873 101.528 70.5708 101.382 70.2495C101.656 70.477 101.901 70.7369 102.112 71.0235C102.327 71.3044 102.512 71.6076 102.662 71.928Z" fill="white"/>
<path d="M77.6499 77.562C77.377 77.3318 77.1319 77.0706 76.9198 76.7835C76.7029 76.5054 76.5185 76.2034 76.37 75.8835C76.6429 76.1137 76.8879 76.375 77.1001 76.662C77.3185 76.9392 77.5031 77.2413 77.6499 77.562Z" fill="white"/>
<path d="M99.6199 84.2624C99.346 84.0349 99.1008 83.775 98.8898 83.4884C98.6739 83.2095 98.4895 82.9077 98.34 82.5884C98.6129 82.8186 98.8579 83.0799 99.0701 83.3669C99.2876 83.643 99.4721 83.9436 99.6199 84.2624Z" fill="white"/>
<path d="M88.6101 65.1601C88.3373 64.9315 88.0922 64.6717 87.88 64.3861C87.665 64.1066 87.4806 63.8049 87.3302 63.4861C87.6041 63.7136 87.8492 63.9735 88.0603 64.2601C88.2753 64.5395 88.4596 64.8413 88.6101 65.1601Z" fill="white"/>
<path d="M88.8039 88.0784C88.5309 87.8482 88.2859 87.5869 88.0738 87.2999C87.8576 87.0212 87.6732 86.7194 87.524 86.3999C87.7978 86.6274 88.043 86.8873 88.254 87.1739C88.4709 87.4537 88.6554 87.7572 88.8039 88.0784Z" fill="white"/>
<path d="M90.6741 74.5606C90.4038 74.3291 90.1604 74.0679 89.9486 73.7821C89.7285 73.5061 89.5438 73.2037 89.3987 72.8821C89.6702 73.1124 89.9138 73.3736 90.1243 73.6606C90.3434 73.9372 90.528 74.2395 90.6741 74.5606Z" fill="white"/>
<path d="M99.9263 63.3374C98.2273 63.0224 96.6319 59.5169 96.4291 57.1589C96.4291 56.9969 97.2223 55.7144 98.1282 54.1079C98.678 53.1314 99.2593 52.0289 99.7235 50.9849C99.8181 50.7734 100.372 51.4889 100.372 51.4889L101.58 52.3889L105.569 55.4444C104.619 56.5824 103.812 57.8322 103.167 59.1659C103.103 59.3104 103.055 59.4613 103.022 59.6159C103.021 59.6414 103.021 59.6669 103.022 59.6924C102.775 60.5834 101.562 63.6389 99.9263 63.3374Z" fill="#EB9481"/>
<path d="M103.022 59.6384C103.021 59.6639 103.021 59.6895 103.022 59.7149C102.786 59.6456 102.555 59.5568 102.333 59.4494C97.9659 57.4064 99.8903 51.5654 99.8903 51.5654L101.603 52.4114L105.591 55.4669C104.641 56.6049 103.835 57.8547 103.189 59.1884C103.118 59.3321 103.062 59.4829 103.022 59.6384Z" fill="#393939"/>
<path d="M110.152 43.011C110.152 43.011 112.148 44.2755 112.157 46.5255C112.166 48.7755 111.256 50.976 111.067 51.057C110.878 51.138 110.152 43.011 110.152 43.011Z" fill="#393939"/>
<path d="M100.246 44.1811C99.0475 46.5436 99.1106 53.9911 100.607 55.9081C102.779 58.6891 106.961 59.6476 109.489 56.8981C111.937 54.2341 111.684 44.5321 109.94 42.7231C107.403 40.0501 102.022 40.6846 100.246 44.1811Z" fill="#EB9481"/>
<path d="M106.61 50.1436C106.61 50.1436 106.569 50.1706 106.574 50.1886C106.601 50.6971 106.547 51.2821 106.091 51.4621C106.091 51.4621 106.091 51.4936 106.091 51.4891C106.655 51.3991 106.718 50.6206 106.61 50.1436Z" fill="#393939"/>
<path d="M106.146 49.6259C105.325 49.5809 105.298 51.2189 106.06 51.2594C106.822 51.2999 106.831 49.6619 106.146 49.6259Z" fill="#393939"/>
<path d="M109.39 50.1255C109.39 50.1255 109.431 50.1255 109.431 50.1705C109.404 50.679 109.462 51.264 109.922 51.4395C109.922 51.4395 109.922 51.471 109.922 51.4665C109.354 51.381 109.287 50.6025 109.39 50.1255Z" fill="#393939"/>
<path d="M109.855 49.6034C110.67 49.5539 110.711 51.1919 109.954 51.2369C109.197 51.2819 109.169 49.6439 109.855 49.6034Z" fill="#393939"/>
<path d="M105.632 48.3796C105.847 48.3184 106.059 48.2463 106.267 48.1636C106.504 48.1208 106.72 48.0004 106.88 47.8216C106.919 47.7561 106.935 47.6796 106.926 47.6039C106.917 47.5283 106.884 47.4577 106.831 47.4031C106.709 47.3105 106.564 47.2521 106.412 47.2339C106.26 47.2157 106.106 47.2384 105.965 47.2996C105.661 47.3809 105.398 47.5716 105.226 47.8351C105.192 47.8977 105.176 47.9689 105.181 48.0402C105.186 48.1114 105.212 48.1797 105.254 48.237C105.297 48.2943 105.355 48.3382 105.422 48.3635C105.489 48.3887 105.562 48.3943 105.632 48.3796Z" fill="#393939"/>
<path d="M110.413 49.104C110.194 49.0551 109.977 48.995 109.764 48.924C109.527 48.8926 109.307 48.7834 109.138 48.6135C109.095 48.5509 109.074 48.4755 109.078 48.3996C109.083 48.3236 109.114 48.2515 109.165 48.195C109.281 48.0958 109.422 48.0296 109.573 48.0035C109.723 47.9774 109.878 47.9922 110.021 48.0465C110.33 48.1103 110.603 48.2869 110.787 48.5415C110.826 48.6018 110.846 48.672 110.846 48.7435C110.845 48.8151 110.824 48.8849 110.784 48.9445C110.744 49.0041 110.688 49.0509 110.622 49.0792C110.557 49.1076 110.484 49.1162 110.413 49.104Z" fill="#393939"/>
<path d="M105.456 54.9539C105.578 55.0754 105.695 55.2374 105.88 55.2554C106.069 55.2553 106.256 55.2154 106.429 55.1384C106.429 55.1384 106.461 55.1384 106.429 55.1654C106.356 55.2643 106.256 55.3413 106.142 55.3881C106.028 55.4348 105.903 55.4496 105.78 55.4309C105.678 55.4029 105.585 55.3453 105.515 55.2653C105.444 55.1853 105.399 55.0864 105.384 54.9809C105.38 54.9714 105.381 54.9608 105.385 54.9515C105.389 54.9422 105.397 54.935 105.406 54.9314C105.416 54.9278 105.427 54.9282 105.436 54.9324C105.445 54.9366 105.452 54.9444 105.456 54.9539Z" fill="#393939"/>
<path d="M108.403 52.785C108.403 52.785 108.426 53.541 108.403 53.8965C107.711 53.8232 107.011 53.8474 106.326 53.9685C106.164 54.0045 106.182 53.874 106.366 53.7885C106.919 53.5365 107.534 53.455 108.133 53.5545C108.169 53.46 108.074 52.3845 108.133 52.389C108.406 52.4425 108.669 52.5333 108.917 52.659C108.917 51.075 108.665 49.509 108.687 47.925C108.687 47.871 108.773 47.862 108.782 47.925C109.102 49.6007 109.253 51.3043 109.233 53.01C109.237 53.2035 108.539 52.857 108.403 52.785Z" fill="#393939"/>
<path d="M107.389 53.6265C107.21 54.0983 106.876 54.4962 106.443 54.756C105.762 55.0305 105.542 54.414 106.227 53.856C106.586 53.6747 106.988 53.5953 107.389 53.6265Z" fill="#393939"/>
<path d="M106.682 54.6164C106.61 54.6749 106.529 54.7219 106.443 54.7559C105.817 55.0079 105.569 54.5084 106.073 54.0044C106.416 54.0314 106.808 54.1574 106.682 54.6164Z" fill="#FF99BA"/>
<path d="M99.9038 50.5485C100.729 50.8005 101.675 48.3255 101.945 47.3985C102.18 46.5615 102.45 43.902 102.491 43.7175C102.531 43.533 106.096 46.071 108.16 45.468C110.224 44.865 111.626 42.9975 111.657 42.129C111.689 41.2605 109.106 39.0555 106.876 38.943C104.645 38.8305 101.621 41.643 101.621 41.643C101.986 41.2291 102.318 40.7867 102.612 40.32C102.576 40.221 101.134 40.797 100.868 41.823C100.868 41.823 101.157 40.5315 101.048 40.509C100.94 40.4865 99.8182 41.589 100.071 42.426C100.071 42.426 98.7726 43.5465 98.6555 44.775C98.5383 46.0035 98.9349 50.2515 99.9038 50.5485Z" fill="#393939"/>
<path d="M109.638 45.0001C109.024 45.3324 108.363 45.5691 107.678 45.7021C106.908 45.7706 106.134 45.6469 105.424 45.3421C104.71 45.0663 104.046 44.674 103.46 44.1811C102.941 43.7581 102.477 43.2406 101.923 42.8626C101.783 42.7636 101.625 42.9661 101.711 43.0921C102.636 44.3964 103.957 45.3685 105.479 45.8641C106.185 46.0941 106.94 46.1371 107.668 45.9888C108.396 45.8406 109.074 45.5061 109.634 45.0181C109.634 45.0181 109.647 45.0001 109.638 45.0001Z" fill="#393939"/>
<path d="M100.765 50.3281C100.765 50.3281 99.4847 47.7361 98.331 48.1546C97.1773 48.5731 97.8803 52.1596 99.0656 52.8166C99.2107 52.9104 99.3734 52.974 99.5438 53.0035C99.7142 53.033 99.8887 53.0278 100.057 52.9883C100.225 52.9488 100.384 52.8758 100.523 52.7736C100.663 52.6714 100.78 52.5422 100.868 52.3936L100.765 50.3281Z" fill="#EB9481"/>
<path d="M98.5608 49.176C98.5608 49.176 98.5337 49.176 98.5608 49.212C99.381 49.698 99.7145 50.562 99.9128 51.462C99.8754 51.3668 99.8178 51.2807 99.7439 51.2099C99.67 51.139 99.5816 51.085 99.4847 51.0516C99.3879 51.0183 99.2849 51.0063 99.183 51.0165C99.081 51.0268 98.9825 51.059 98.8943 51.111C98.8672 51.111 98.8943 51.1605 98.8943 51.1605C99.0555 51.1355 99.2205 51.161 99.3666 51.2335C99.5127 51.3061 99.6327 51.4221 99.71 51.5655C99.839 51.8058 99.9417 52.0593 100.016 52.3215C100.043 52.407 100.192 52.3845 100.179 52.29C100.372 51.1695 99.7415 49.473 98.5608 49.176Z" fill="#393939"/>
<path d="M92.3146 61.9019C91.4132 67.0004 96.9474 84.1769 100.494 87.3854C105.771 92.1554 115.528 95.2919 119.066 96.3134C120.607 96.7634 124.871 85.9319 123.311 85.2164C119.972 83.6999 109.598 80.4599 108.611 79.6499C107.624 78.8399 101.675 70.2584 99.025 65.3174C95.4782 58.6664 92.7607 59.3234 92.3146 61.9019Z" fill="#EB9481"/>
<path d="M120.684 84.2625C120.684 84.2625 125.29 85.4369 128.26 86.3414C129.918 86.8499 132.685 87.9705 133.735 88.8975C135.304 90.288 140.973 97.0919 139.351 98.5004C137.881 99.7784 133.753 93.3119 133.753 93.3119C133.753 93.3119 138.494 99.4679 136.457 100.678C134.42 101.889 130.693 93.9644 130.693 93.9644C130.693 93.9644 135.421 100.399 133.109 101.313C131.36 102.001 127.611 95.0129 127.611 95.0129C127.611 95.0129 131.64 100.57 129.864 101.358C127.908 102.231 124.046 95.994 124.046 95.994C119.215 97.2405 116.385 95.859 114.523 94.644C114.086 94.347 120.684 84.2625 120.684 84.2625Z" fill="#EB9481"/>
<path d="M132.248 91.0756C132.834 91.7776 133.429 92.4886 133.947 93.2401C134.465 93.9916 134.957 94.7656 135.403 95.5621C136.007 96.5923 136.491 97.6885 136.845 98.8291C136.07 96.8491 134.254 94.1266 133.735 93.3751C133.217 92.6236 132.735 91.8451 132.221 91.0936C132.208 91.0756 132.235 91.0576 132.248 91.0756Z" fill="#393939"/>
<path d="M129.495 92.8979C130.495 93.6899 132.591 96.6329 133.397 98.6084C133.433 98.6894 133.397 98.6849 133.339 98.6084C132.708 97.6319 130.148 93.8519 129.472 92.9114C129.459 92.8979 129.481 92.8844 129.495 92.8979Z" fill="#393939"/>
<path d="M126.849 94.05C128.092 95.3519 129.074 96.8794 129.742 98.55C129.774 98.631 129.711 98.6175 129.661 98.55C128.728 97.0335 128.007 95.85 126.8 94.0905C126.782 94.05 126.822 94.0095 126.849 94.05Z" fill="#393939"/>
<path d="M97.344 62.2756C93.2294 56.4661 90.7688 58.6171 91.5935 64.9261C92.3686 70.8256 94.4372 77.8546 94.4372 77.8546L104.803 72.8326C104.803 72.8326 99.9624 65.9971 97.344 62.2756Z" fill="#1A73E8"/>
<path d="M99.8452 64.5615C99.9818 64.8897 100.08 65.2324 100.138 65.583C100.201 65.9348 100.224 66.2926 100.206 66.6495C100.071 66.3197 99.9738 65.9754 99.9173 65.6235C99.8503 65.2737 99.8261 64.9171 99.8452 64.5615Z" fill="white"/>
<path d="M93.7026 68.0941C94.3641 67.8254 95.0758 67.7026 95.7892 67.7341C95.4604 67.869 95.1171 67.9657 94.7662 68.0221C94.4159 68.0889 94.0587 68.113 93.7026 68.0941Z" fill="white"/>
<path d="M93.9685 59.0581C93.6894 59.7158 93.273 60.3064 92.7472 60.7906C93.0263 60.1329 93.4426 59.5423 93.9685 59.0581Z" fill="white"/>
<path d="M102.752 70.8074C102.615 71.1365 102.441 71.449 102.234 71.7389C102.032 72.0324 101.796 72.3013 101.531 72.5399C101.81 71.8822 102.226 71.2916 102.752 70.8074Z" fill="white"/>
<path d="M95.5414 74.3311C95.211 74.1961 94.8978 74.0224 94.6085 73.8136C94.3143 73.6119 94.0451 73.3763 93.8063 73.1116C94.4649 73.3902 95.0564 73.806 95.5414 74.3311Z" fill="white"/>
<path d="M98.696 64.0259C99.2503 64.7864 99.8227 65.5289 100.391 66.2759C100.246 65.8979 100.12 65.5154 100.012 65.1284H100.039C100.152 65.4254 100.282 65.7179 100.391 66.0284L100.553 66.4784C100.567 66.5091 100.579 66.5407 100.589 66.5729C101.039 67.1534 101.49 67.7339 101.905 68.3279C102.414 69.0389 102.905 69.7589 103.401 70.4789C103.897 71.1989 104.397 72.0944 104.933 72.8189C104.983 72.8819 104.032 73.2689 103.928 73.3184C103.825 73.3679 103.771 73.2824 103.87 73.2509C103.969 73.2194 104.726 72.7559 104.735 72.7469C104.239 72.0179 103.667 71.3474 103.149 70.6409C102.63 69.9344 102.117 69.2279 101.616 68.5124C100.602 67.0544 99.674 65.5424 98.6645 64.0799L98.696 64.0259Z" fill="#393939"/>
<path d="M91.8369 69.1019C91.9946 69.4079 92.1659 69.7094 92.2875 70.0244L92.4588 70.4159C92.2199 69.2954 92.0081 68.1659 91.7603 67.0454C92.238 68.8454 92.7202 70.6859 93.1618 72.5129C93.5809 74.2589 94.0902 76.0229 94.3336 77.8049C94.6478 77.6673 94.9735 77.5573 95.307 77.4764C94.9724 77.6927 94.6121 77.8665 94.2344 77.9939C93.6912 76.1818 93.2399 74.3435 92.8824 72.4859C92.7697 71.9819 92.6661 71.4779 92.5579 70.9739C92.4408 70.6679 92.3011 70.3754 92.1613 70.0739C92.0216 69.7724 91.8955 69.4349 91.7693 69.1154C91.7963 69.0974 91.8279 69.0794 91.8369 69.1019Z" fill="#393939"/>
<path d="M94.5904 76.1176C96.0326 75.3076 102.058 72.1936 103.405 71.6176C103.5 71.5771 103.55 71.6176 103.455 71.6806C100.595 73.34 97.6462 74.8423 94.622 76.1806C94.5859 76.1896 94.5499 76.1401 94.5904 76.1176Z" fill="#393939"/>
<path d="M259.728 194.422H122.419L142.271 81.99H279.58L259.728 194.422Z" fill="#1A73E8"/>
<path d="M189.266 70.344H144.331L142.271 81.99H190.362L189.266 70.344Z" fill="#1A73E8"/>
<g opacity="0.1">
<path opacity="0.1" d="M259.728 194.422H122.419L142.271 81.99H279.58L259.728 194.422Z" fill="#393939"/>
<path opacity="0.1" d="M189.266 70.344H144.331L142.271 81.99H190.362L189.266 70.344Z" fill="#393939"/>
</g>
<path d="M139.481 75.0959C139.181 73.8082 139.181 72.4687 139.481 71.1809C139.782 72.4687 139.782 73.8082 139.481 75.0959Z" fill="#393939"/>
<path d="M135.488 76.248C135.03 75.7729 134.634 75.2405 134.312 74.664C133.974 74.0996 133.709 73.4948 133.524 72.864C133.984 73.3363 134.379 73.8675 134.7 74.4435C135.037 75.0099 135.302 75.6161 135.488 76.248Z" fill="#393939"/>
<path d="M132.604 79.2405C131.338 78.856 130.177 78.1863 129.211 77.283C129.842 77.4663 130.448 77.7294 131.013 78.066C131.591 78.3895 132.125 78.7841 132.604 79.2405Z" fill="#393939"/>
<path d="M131.595 83.2724C130.305 83.5724 128.964 83.5724 127.674 83.2724C128.964 82.9724 130.305 82.9724 131.595 83.2724Z" fill="#393939"/>
<path d="M132.766 87.2595C132.289 87.7153 131.756 88.1099 131.18 88.434C130.615 88.7705 130.009 89.0337 129.377 89.217C129.853 88.7588 130.386 88.364 130.964 88.0425C131.528 87.7044 132.134 87.4412 132.766 87.2595Z" fill="#393939"/>
<path d="M135.759 90.135C135.375 91.4014 134.704 92.5625 133.798 93.528C133.982 92.8964 134.247 92.2913 134.587 91.728C134.908 91.1495 135.302 90.6142 135.759 90.135Z" fill="#393939"/>
<path d="M139.797 91.1294C139.954 91.7699 140.03 92.4275 140.022 93.0869C140.032 93.7464 139.956 94.4043 139.797 95.0444C139.635 94.4047 139.56 93.7465 139.571 93.0869C139.564 92.4275 139.64 91.7699 139.797 91.1294Z" fill="#393939"/>
<path d="M143.79 90C144.249 90.4751 144.644 91.0075 144.966 91.584C145.305 92.1474 145.568 92.7525 145.75 93.384C144.844 92.4184 144.173 91.2574 143.79 89.991V90Z" fill="#393939"/>
<path d="M146.669 86.9851C147.302 87.1668 147.908 87.43 148.472 87.7681C149.049 88.0896 149.583 88.4844 150.058 88.9426C149.426 88.7609 148.82 88.4977 148.256 88.1596C147.678 87.8381 147.145 87.4433 146.669 86.9851Z" fill="#393939"/>
<path d="M147.665 82.953C148.957 82.653 150.3 82.653 151.591 82.953C150.3 83.2529 148.957 83.2529 147.665 82.953Z" fill="#393939"/>
<path d="M146.512 78.966C146.989 78.5106 147.522 78.1175 148.098 77.796C148.661 77.4547 149.267 77.1899 149.901 77.0085C148.934 77.9131 147.771 78.583 146.503 78.966H146.512Z" fill="#393939"/>
<path d="M143.515 76.0905C143.7 75.4604 143.964 74.8557 144.299 74.2905C144.621 73.7141 145.016 73.1817 145.475 72.7065C145.293 73.338 145.03 73.9431 144.691 74.5065C144.369 75.083 143.974 75.6154 143.515 76.0905Z" fill="#393939"/>
<path d="M259.525 194.423H121.923L102.382 86.0715H239.989L259.525 194.423Z" fill="#1A73E8"/>
<path d="M150.067 152.307C153.226 152.307 155.786 149.75 155.786 146.596C155.786 143.443 153.226 140.886 150.067 140.886C146.909 140.886 144.349 143.443 144.349 146.596C144.349 149.75 146.909 152.307 150.067 152.307Z" fill="#E8E8E8"/>
<path d="M195.278 152.307C198.437 152.307 200.997 149.75 200.997 146.596C200.997 143.443 198.437 140.886 195.278 140.886C192.12 140.886 189.559 143.443 189.559 146.596C189.559 149.75 192.12 152.307 195.278 152.307Z" fill="#E8E8E8"/>
<path d="M180.889 153.22L180.573 152.622C180.546 152.568 177.59 147.114 171.645 147.114C166.237 147.114 164.885 152.248 164.849 152.469L164.687 153.121L163.376 152.806L163.533 152.149C163.533 152.086 165.147 145.764 171.645 145.764C178.405 145.764 181.637 151.74 181.772 151.996L182.087 152.59L180.889 153.22Z" fill="#E8E8E8"/>
<path d="M250.44 146.16L250.345 145.71C250.638 145.647 250.927 145.58 251.215 145.503L251.328 145.953C251.021 146.03 250.737 146.097 250.44 146.16Z" fill="#393939"/>
<path d="M253.072 145.436L252.928 145.013C253.491 144.819 254.054 144.608 254.6 144.378L254.775 144.792C254.221 145.026 253.649 145.242 253.072 145.436ZM256.429 144L256.227 143.604C256.754 143.33 257.281 143.033 257.781 142.704L258.016 143.087C257.502 143.442 256.966 143.744 256.429 144ZM259.53 142.097L259.264 141.732C259.751 141.377 260.219 141.003 260.661 140.621L260.959 140.958C260.485 141.368 260.035 141.75 259.525 142.115L259.53 142.097ZM262.279 139.703L261.95 139.392C262.365 138.942 262.757 138.492 263.117 138.042L263.473 138.317C263.099 138.812 262.698 139.275 262.288 139.721L262.279 139.703ZM264.51 136.823L264.127 136.584C264.438 136.081 264.715 135.558 264.956 135.018L265.371 135.203C265.116 135.766 264.827 136.313 264.505 136.841L264.51 136.823ZM266.001 133.484L265.551 133.358C265.715 132.793 265.837 132.217 265.916 131.634L266.367 131.693C266.292 132.304 266.168 132.909 265.997 133.502L266.001 133.484ZM266.502 129.884H266.051V129.753C266.051 129.209 266.019 128.655 265.965 128.111L266.416 128.066C266.475 128.626 266.505 129.189 266.506 129.753L266.502 129.884ZM265.691 126.36C265.569 125.78 265.419 125.206 265.24 124.641L265.691 124.506C265.875 125.091 266.033 125.685 266.141 126.266L265.691 126.36ZM264.622 122.972C264.406 122.441 264.172 121.896 263.883 121.347L264.289 121.145C264.564 121.703 264.816 122.261 265.037 122.801L264.622 122.972ZM263.045 119.763C262.766 119.273 262.459 118.755 262.144 118.224L262.527 117.986C262.856 118.521 263.167 119.043 263.428 119.543L263.045 119.763ZM261.161 116.708C260.832 116.213 260.499 115.713 260.156 115.214L260.53 114.962C260.873 115.461 261.206 115.961 261.535 116.465L261.161 116.708ZM259.133 113.729C258.795 113.234 258.453 112.734 258.119 112.239L258.493 111.987C258.827 112.482 259.165 112.982 259.503 113.472L259.133 113.729ZM257.119 110.732C256.79 110.228 256.47 109.715 256.154 109.202L256.537 108.968C256.853 109.481 257.173 109.985 257.497 110.489L257.119 110.732ZM255.24 107.64C254.933 107.096 254.649 106.556 254.392 106.038L254.798 105.836C255.05 106.349 255.334 106.88 255.632 107.42L255.24 107.64ZM253.64 104.4C253.401 103.838 253.189 103.266 252.991 102.708L253.441 102.564C253.631 103.109 253.843 103.671 254.077 104.225L253.64 104.4ZM252.468 100.967C252.319 100.382 252.189 99.783 252.089 99.1665L252.54 99.0945C252.639 99.6705 252.761 100.256 252.91 100.832L252.468 100.967ZM251.864 97.3665C251.819 96.813 251.796 96.255 251.796 95.697V95.5485H252.247V95.6925C252.247 96.237 252.247 96.786 252.315 97.326L251.864 97.3665ZM252.315 93.7665L251.864 93.7215C251.864 93.6 251.887 93.474 251.9 93.3435C251.954 92.862 252.022 92.3805 252.103 91.9215L252.554 91.998C252.477 92.448 252.409 92.9205 252.355 93.393C252.373 93.5325 252.373 93.654 252.337 93.78L252.315 93.7665ZM252.941 90.2655L252.49 90.144C252.657 89.55 252.851 88.9695 253.067 88.416L253.486 88.578C253.282 89.1352 253.107 89.703 252.964 90.279L252.941 90.2655ZM275.398 87.642C275.146 87.642 274.884 87.606 274.627 87.57C274.276 87.5205 273.924 87.462 273.577 87.3945L273.667 86.9445C274.001 87.0075 274.348 87.066 274.69 87.1155C274.934 87.147 275.182 87.1695 275.42 87.183L275.398 87.642ZM277.25 87.5025L277.155 87.0525C277.721 86.9359 278.263 86.7261 278.76 86.4315L278.994 86.814C278.463 87.142 277.882 87.3793 277.273 87.516L277.25 87.5025ZM254.239 86.967L253.838 86.7555C254.125 86.2189 254.442 85.699 254.789 85.1985L255.158 85.455C254.829 85.9451 254.53 86.4545 254.262 86.9805L254.239 86.967ZM271.815 86.94C271.233 86.7557 270.662 86.541 270.103 86.2965L270.287 85.8825C270.829 86.1229 271.384 86.3317 271.95 86.508L271.815 86.94ZM280.378 85.536L280.004 85.284C280.325 84.8192 280.515 84.2768 280.554 83.7135L281.004 83.745C280.966 84.3906 280.754 85.0139 280.391 85.5495L280.378 85.536ZM268.48 85.4685C267.953 85.1624 267.443 84.8274 266.952 84.465L267.218 84.105C267.695 84.4565 268.192 84.781 268.705 85.077L268.48 85.4685ZM256.267 84.0645L255.934 83.763C256.342 83.3099 256.777 82.8816 257.236 82.4805L257.533 82.818C257.091 83.213 256.673 83.6338 256.281 84.078L256.267 84.0645ZM265.546 83.304C265.097 82.8912 264.672 82.454 264.271 81.9945L264.609 81.6975C264.999 82.1438 265.413 82.5689 265.848 82.971L265.546 83.304ZM280.216 82.0845C279.957 81.5703 279.601 81.1116 279.165 80.7345L279.463 80.397C279.942 80.8106 280.335 81.3135 280.621 81.8775L280.216 82.0845ZM258.935 81.729L258.678 81.36C259.182 81.0163 259.704 80.6994 260.242 80.4105L260.454 80.8065C259.936 81.0922 259.434 81.4046 258.949 81.7425L258.935 81.729ZM263.144 80.559C262.973 80.316 262.806 80.0685 262.649 79.812L262.063 80.0415L261.891 79.6275L262.41 79.4205C262.329 79.2855 262.247 79.1505 262.171 79.0155L262.563 78.795C262.653 78.9525 262.743 79.11 262.838 79.245C263.09 79.155 263.347 79.0695 263.608 78.9885L263.739 79.4385C263.518 79.506 263.288 79.578 263.081 79.6545C263.221 79.875 263.365 80.1045 263.532 80.298L263.144 80.559ZM277.714 79.785C277.278 79.568 276.826 79.3845 276.362 79.236L276.065 79.1415L276.196 78.6915L276.502 78.7905C276.985 78.9442 277.455 79.1353 277.908 79.362L277.714 79.785ZM265.465 78.9795L265.371 78.5295C265.952 78.399 266.556 78.291 267.173 78.2055L267.241 78.6555C266.646 78.75 266.056 78.8625 265.479 78.993L265.465 78.9795ZM274.343 78.7365C273.78 78.6375 273.185 78.561 272.577 78.507L272.613 78.057C273.239 78.111 273.848 78.1875 274.415 78.291L274.343 78.7365ZM269.003 78.4755L268.971 78.0255C269.508 77.994 270.044 77.976 270.576 77.976H270.797V78.426H270.58C270.071 78.4395 269.539 78.453 269.016 78.489L269.003 78.4755ZM261.387 77.4C261.143 76.851 260.936 76.2795 260.733 75.699L261.184 75.5595C261.373 76.1265 261.585 76.6845 261.819 77.22L261.387 77.4ZM260.246 73.944C260.111 73.3635 259.999 72.7605 259.913 72.144L260.364 72.081C260.449 72.675 260.557 73.2645 260.688 73.836L260.246 73.944ZM259.742 70.344C259.719 69.939 259.706 69.525 259.706 69.111C259.706 68.9175 259.706 68.7195 259.706 68.526H260.156C260.156 68.7195 260.156 68.9085 260.156 69.102C260.156 69.507 260.156 69.9165 260.188 70.308L259.742 70.344ZM260.278 66.744L259.827 66.699C259.89 66.105 259.976 65.4975 260.08 64.899L260.53 64.9755C260.409 65.574 260.323 66.15 260.264 66.753L260.278 66.744ZM260.895 63.2295L260.445 63.1215C260.589 62.541 260.756 61.956 260.94 61.371L261.391 61.5105C261.188 62.1 261.022 62.6715 260.882 63.2385L260.895 63.2295ZM261.977 59.823L261.558 59.661C261.779 59.0985 262.009 58.536 262.283 57.9915L262.689 58.1895C262.419 58.7295 262.18 59.2785 261.964 59.85L261.977 59.823ZM263.527 56.6145L263.135 56.385C263.442 55.8675 263.771 55.35 264.113 54.855L264.483 55.1115C264.131 55.6065 263.811 56.1105 263.514 56.6235L263.527 56.6145ZM265.56 53.685L265.208 53.4015C265.587 52.9515 265.992 52.4745 266.412 52.0515L266.736 52.362C266.312 52.785 265.916 53.235 265.546 53.694L265.56 53.685ZM268.011 51.093L267.71 50.76C268.16 50.3595 268.611 49.9635 269.093 49.581L269.372 49.9365C268.89 50.319 268.431 50.7105 267.998 51.102L268.011 51.093ZM270.81 48.87L270.553 48.4965C271.044 48.159 271.558 47.826 272.081 47.511L272.311 47.8935C271.788 48.213 271.301 48.5415 270.797 48.879L270.81 48.87ZM273.87 47.0115L273.658 46.6155C274.19 46.332 274.74 46.062 275.29 45.81L275.479 46.2195C274.907 46.476 274.379 46.746 273.857 47.0205L273.87 47.0115ZM277.128 45.5175L276.962 45.0945C277.53 44.874 278.102 44.6445 278.67 44.478L278.814 44.928C278.242 45.099 277.674 45.306 277.115 45.5265L277.128 45.5175Z" fill="#393939"/>
<path d="M280.603 44.3792L280.49 43.9292C281.049 43.7852 281.392 43.7222 281.392 43.7222L281.473 44.1722C281.473 44.1722 281.148 44.2397 280.603 44.3792Z" fill="#393939"/>
<path d="M288.571 41.4722C287.422 37.9172 279.724 39.1952 281.225 43.8437C282.726 48.4922 289.72 45.0317 288.571 41.4722Z" fill="#393939"/>
<path d="M277.038 40.0501C277.097 38.4886 279.269 37.2871 282.343 37.8406C285.416 38.3941 288.305 40.4641 288.305 40.4641C288.305 40.4641 285.272 42.3001 282.167 42.6376C279.062 42.9751 276.98 41.6071 277.038 40.0501Z" fill="#EBEBEB"/>
<path d="M288.305 40.455C286.71 40.455 285.119 40.41 283.528 40.3605C281.937 40.311 280.342 40.23 278.751 40.104C280.346 40.104 281.942 40.1445 283.532 40.194C285.123 40.2435 286.719 40.3245 288.305 40.455Z" fill="#393939"/>
<path d="M280.125 38.6597C281.031 39.0923 281.885 39.6251 282.672 40.2482C282.218 40.0358 281.779 39.7953 281.356 39.5282C280.929 39.2628 280.518 38.9729 280.125 38.6597Z" fill="#393939"/>
<path d="M284.303 40.3066C283.488 40.9664 282.604 41.5367 281.667 42.0076C282.486 41.3471 283.375 40.7768 284.317 40.3066H284.303Z" fill="#393939"/>
<path d="M284.767 39.4292C285.222 39.6472 285.62 39.9676 285.93 40.3652C285.703 40.258 285.489 40.1235 285.294 39.9647C285.099 39.8069 284.922 39.6272 284.767 39.4292Z" fill="#393939"/>
<path d="M279.968 49.2976C280.928 50.5306 283.393 50.2336 285.56 47.9926C287.728 45.7516 288.877 42.3811 288.877 42.3811C288.877 42.3811 285.326 42.6511 282.618 44.1811C279.909 45.7111 279.003 48.0601 279.968 49.2976Z" fill="#EBEBEB"/>
<path d="M288.877 42.3811C287.579 43.2811 286.318 44.2801 285.051 45.2476C283.785 46.2151 282.545 47.2141 281.333 48.2446C282.631 47.3446 283.893 46.3501 285.155 45.3826C286.417 44.4151 287.647 43.4161 288.877 42.3811Z" fill="#393939"/>
<path d="M283.28 48.6001C283.521 48.163 283.736 47.7122 283.924 47.2501C284.116 46.7867 284.279 46.3118 284.411 45.8281C284.17 46.2649 283.954 46.7157 283.767 47.1781C283.577 47.6422 283.414 48.117 283.28 48.6001Z" fill="#393939"/>
<path d="M285.723 44.8381C284.668 44.7818 283.611 44.8376 282.568 45.0046C283.093 45.0361 283.62 45.0361 284.145 45.0046C284.674 44.9789 285.2 44.9233 285.723 44.8381Z" fill="#393939"/>
<path d="M286.592 45.2836C286.713 45.0614 286.807 44.8258 286.872 44.5816C286.939 44.3393 286.978 44.0902 286.989 43.8391C286.749 44.2846 286.614 44.7784 286.592 45.2836Z" fill="#393939"/>
<path d="M288.571 41.4721C288.316 41.5547 288.043 41.5599 287.786 41.4872C287.528 41.4145 287.298 41.2672 287.124 41.0638C286.951 40.8605 286.842 40.6102 286.81 40.3448C286.779 40.0794 286.828 39.8108 286.95 39.573C287.072 39.3351 287.262 39.1387 287.495 39.0087C287.729 38.8787 287.996 38.8209 288.263 38.8426C288.53 38.8643 288.784 38.9645 288.994 39.1306C289.203 39.2967 289.359 39.5212 289.441 39.7756C289.55 40.1158 289.52 40.4853 289.357 40.8033C289.194 41.1213 288.911 41.3618 288.571 41.4721Z" fill="#252525"/>
<path d="M289.4 44.0417C289.146 44.1239 288.873 44.1289 288.615 44.0561C288.358 43.9834 288.128 43.8361 287.955 43.6329C287.781 43.4298 287.672 43.1798 287.641 42.9147C287.61 42.6495 287.658 42.3811 287.78 42.1433C287.901 41.9056 288.091 41.7091 288.324 41.5789C288.557 41.4486 288.824 41.3903 289.091 41.4115C289.357 41.4326 289.612 41.5321 289.821 41.6975C290.031 41.8629 290.187 42.0867 290.27 42.3407C290.325 42.5094 290.346 42.6872 290.332 42.864C290.318 43.0408 290.269 43.2132 290.188 43.3711C290.107 43.5291 289.996 43.6696 289.861 43.7847C289.726 43.8997 289.569 43.9871 289.4 44.0417Z" fill="#252525"/>
<path d="M141.649 42.894C141.433 44.9609 140.646 46.9272 139.376 48.5736C138.106 50.2199 136.403 51.4815 134.457 52.2175C132.51 52.9535 130.397 53.1351 128.354 52.7418C126.31 52.3486 124.416 51.396 122.883 49.9905L117.263 50.814L120.076 45.963C119.433 44.3846 119.158 42.6805 119.273 40.9804C119.388 39.2802 119.89 37.6286 120.74 36.151C121.59 34.6735 122.767 33.4088 124.179 32.453C125.592 31.4973 127.205 30.8756 128.894 30.6353C130.584 30.395 132.306 30.5422 133.93 31.066C135.554 31.5897 137.037 32.4761 138.267 33.6578C139.496 34.8395 140.44 36.2855 141.026 37.8859C141.612 39.4863 141.825 41.199 141.649 42.894Z" fill="white"/>
<path d="M141.649 42.8939C141.438 44.9597 140.658 46.9269 139.396 48.5774C138.779 49.4122 138.035 50.1455 137.192 50.7509C136.367 51.379 135.456 51.8866 134.488 52.2584C133.519 52.6394 132.501 52.8818 131.464 52.9784C130.946 53.0248 130.425 53.0354 129.905 53.0099C129.383 52.9965 128.863 52.9423 128.35 52.8479C126.279 52.4674 124.355 51.5184 122.793 50.1074L122.924 50.1479L117.313 51.0074L116.903 51.0704L117.11 50.7104L119.904 45.8504V46.0439C119.245 44.4363 118.965 42.6989 119.085 40.9659C119.205 39.2329 119.723 37.5507 120.598 36.0494C121.473 34.5528 122.674 33.2729 124.114 32.3054C125.551 31.3508 127.186 30.7334 128.896 30.4996C130.606 30.2658 132.347 30.4216 133.988 30.9554C135.611 31.507 137.091 32.4141 138.319 33.6104C139.543 34.8037 140.48 36.2598 141.057 37.8684C141.634 39.4769 141.836 41.1955 141.649 42.8939ZM141.649 42.8939C141.831 41.2039 141.622 39.4947 141.037 37.8983C140.453 36.3019 139.509 34.861 138.278 33.6868C137.047 32.5127 135.563 31.6366 133.939 31.1263C132.315 30.6161 130.596 30.4852 128.913 30.7439C127.248 30.9901 125.661 31.6151 124.276 32.5709C122.903 33.5342 121.755 34.784 120.914 36.2339C120.085 37.687 119.597 39.3085 119.485 40.9769C119.376 42.6566 119.647 44.3393 120.278 45.8999L120.319 45.9989L120.265 46.0934L117.435 50.9354L117.236 50.6384L122.861 49.8509H122.937L122.991 49.9004C124.495 51.2977 126.358 52.2497 128.372 52.6499C128.874 52.752 129.384 52.8137 129.896 52.8344C130.407 52.8704 130.921 52.8704 131.432 52.8344C132.458 52.7518 133.468 52.5293 134.434 52.1729C135.402 51.8211 136.312 51.3299 137.138 50.7149C137.978 50.1144 138.722 49.3908 139.346 48.5684C140.624 46.9259 141.422 44.9616 141.649 42.8939Z" fill="#393939"/>
<path d="M124.988 46.9574C124.979 46.8084 125.001 46.6592 125.053 46.5191C125.104 46.379 125.184 46.251 125.287 46.143C125.39 46.0349 125.515 45.9492 125.652 45.8912C125.79 45.8331 125.938 45.8039 126.088 45.8054C126.393 45.8054 126.687 45.9267 126.903 46.1428C127.12 46.3588 127.241 46.6518 127.241 46.9574C127.241 47.2629 127.12 47.5559 126.903 47.772C126.687 47.988 126.393 48.1094 126.088 48.1094C125.938 48.1109 125.79 48.0817 125.652 48.0236C125.515 47.9655 125.39 47.8798 125.287 47.7718C125.184 47.6637 125.104 47.5357 125.053 47.3956C125.001 47.2555 124.979 47.1063 124.988 46.9574ZM125.439 44.2979L125.177 35.3699H126.98L126.718 44.2979H125.439Z" fill="#1A73E8"/>
<path d="M129.274 46.9574C129.265 46.8088 129.287 46.66 129.338 46.5202C129.389 46.3804 129.469 46.2526 129.571 46.1446C129.674 46.0367 129.798 45.9509 129.935 45.8925C130.072 45.8342 130.22 45.8045 130.369 45.8054C130.675 45.8054 130.968 45.9267 131.185 46.1428C131.401 46.3588 131.523 46.6518 131.523 46.9574C131.523 47.2629 131.401 47.5559 131.185 47.772C130.968 47.988 130.675 48.1094 130.369 48.1094C130.22 48.1102 130.072 48.0806 129.935 48.0222C129.798 47.9639 129.674 47.8781 129.571 47.7701C129.469 47.6622 129.389 47.5343 129.338 47.3946C129.287 47.2548 129.265 47.106 129.274 46.9574ZM129.724 44.2979L129.477 35.3699H131.279L131.018 44.2979H129.724Z" fill="#1A73E8"/>
<path d="M133.555 46.9574C133.546 46.8084 133.569 46.6592 133.62 46.5191C133.671 46.379 133.751 46.251 133.854 46.143C133.957 46.0349 134.082 45.9492 134.219 45.8912C134.357 45.8331 134.505 45.8039 134.655 45.8054C134.961 45.8054 135.254 45.9267 135.47 46.1428C135.687 46.3588 135.808 46.6518 135.808 46.9574C135.808 47.2629 135.687 47.5559 135.47 47.772C135.254 47.988 134.961 48.1094 134.655 48.1094C134.505 48.1109 134.357 48.0817 134.219 48.0236C134.082 47.9655 133.957 47.8798 133.854 47.7718C133.751 47.6637 133.671 47.5357 133.62 47.3956C133.569 47.2555 133.546 47.1063 133.555 46.9574ZM134.006 44.2979L133.744 35.3699H135.547L135.29 44.2979H134.006Z" fill="#1A73E8"/>
</svg>
