<svg width="12" height="14" viewBox="0 0 12 14" fill="none" xmlns="http://www.w3.org/2000/svg">
<path d="M6 13.7214C4.493 13.2739 3.24125 12.3611 2.24475 10.9831C1.24825 9.60512 0.75 8.05237 0.75 6.32487V2.26887L6 0.307617L11.25 2.26887V6.32487C11.25 7.16637 11.1192 7.99112 10.8577 8.79912C10.5962 9.60762 10.1905 10.3819 9.6405 11.1219L7.32675 8.80887C7.14025 8.95587 6.93325 9.06612 6.70575 9.13962C6.47825 9.21312 6.243 9.24987 6 9.24987C5.3815 9.24987 4.85175 9.02962 4.41075 8.58912C3.96975 8.14862 3.7495 7.61887 3.75 6.99987C3.7505 6.38087 3.97075 5.85112 4.41075 5.41062C4.85075 4.97012 5.3805 4.74987 6 4.74987C6.6195 4.74987 7.14925 4.97012 7.58925 5.41062C8.02925 5.85112 8.2495 6.38087 8.25 6.99987C8.25 7.23137 8.21575 7.45487 8.14725 7.67037C8.07825 7.88587 7.98475 8.08837 7.86675 8.27787L9.53925 9.95037C9.82775 9.40937 10.06 8.84087 10.236 8.24487C10.412 7.64837 10.5 7.00837 10.5 6.32487V2.78112L6 1.10862L1.5 2.78112V6.32487C1.5 7.83737 1.925 9.21237 2.775 10.4499C3.625 11.6874 4.7 12.5124 6 12.9249C6.325 12.8249 6.6345 12.6969 6.9285 12.5409C7.2225 12.3849 7.513 12.2004 7.8 11.9874L8.2725 12.5469C7.899 12.8169 7.5365 13.0459 7.185 13.2339C6.8335 13.4214 6.4385 13.5839 6 13.7214ZM6 8.49987C6.4125 8.49987 6.76575 8.35312 7.05975 8.05962C7.35375 7.76612 7.5005 7.41287 7.5 6.99987C7.4995 6.58687 7.35275 6.23387 7.05975 5.94087C6.76675 5.64787 6.4135 5.50087 6 5.49987C5.5865 5.49887 5.2335 5.64587 4.941 5.94087C4.6485 6.23587 4.5015 6.58887 4.5 6.99987C4.4985 7.41087 4.6455 7.76412 4.941 8.05962C5.2365 8.35512 5.5895 8.50187 6 8.49987Z" fill="#333333"/>
</svg>
