<svg width="24" height="24" viewBox="0 0 24 24" fill="none" xmlns="http://www.w3.org/2000/svg">
<path d="M19.6188 21.25C19.6188 17.648 15.6028 14.72 12.0008 14.72C8.39881 14.72 4.38281 17.648 4.38281 21.25M12.0008 11.456C13.1553 11.456 14.2625 10.9974 15.0788 10.181C15.8952 9.36469 16.3538 8.25749 16.3538 7.103C16.3538 5.94851 15.8952 4.84131 15.0788 4.02496C14.2625 3.20862 13.1553 2.75 12.0008 2.75C10.8463 2.75 9.73912 3.20862 8.92278 4.02496C8.10643 4.84131 7.64781 5.94851 7.64781 7.103C7.64781 8.25749 8.10643 9.36469 8.92278 10.181C9.73912 10.9974 10.8463 11.456 12.0008 11.456Z" stroke="#707070" stroke-width="1.5" stroke-linecap="round" stroke-linejoin="round"/>
</svg>
