<svg width="12" height="17" viewBox="0 0 12 17" fill="none" xmlns="http://www.w3.org/2000/svg">
<path d="M6 1.875C3.1425 1.875 1.125 3.93225 1.125 6.46425C1.125 7.61625 1.599 8.39325 2.19375 9.13425C2.32275 9.2955 2.454 9.45075 2.589 9.6105L2.661 9.6945C2.8185 9.882 2.98125 10.0755 3.1335 10.275C3.4365 10.6733 3.72075 11.121 3.87975 11.6505C3.91869 11.7921 3.90071 11.9433 3.82964 12.0718C3.75858 12.2004 3.64007 12.296 3.49943 12.3383C3.3588 12.3806 3.20719 12.3662 3.07701 12.2983C2.94683 12.2303 2.8484 12.1141 2.80275 11.9745C2.69925 11.6295 2.505 11.307 2.238 10.9567C2.09709 10.7746 1.95154 10.596 1.8015 10.4213L1.7325 10.3387C1.5975 10.1797 1.455 10.0118 1.31625 9.8385C0.6525 9.012 0 7.98825 0 6.4635C0 3.27225 2.56125 0.75 6 0.75C9.43875 0.75 12 3.2715 12 6.46425C12 7.98825 11.3475 9.012 10.6838 9.83925C10.545 10.0118 10.4025 10.1798 10.2675 10.3395L10.1985 10.4213C10.041 10.6073 9.89475 10.782 9.762 10.9567C9.495 11.307 9.30075 11.6302 9.19725 11.9745C9.14938 12.1114 9.05052 12.2246 8.92126 12.2905C8.792 12.3564 8.64232 12.3698 8.50339 12.3281C8.36446 12.2863 8.247 12.1925 8.17549 12.0663C8.10397 11.9401 8.08392 11.7911 8.1195 11.6505C8.27925 11.121 8.5635 10.6733 8.86725 10.275C9.01875 10.0755 9.1815 9.882 9.33975 9.6945L9.411 9.6105C9.546 9.45075 9.67725 9.2955 9.80625 9.135C10.401 8.3925 10.875 7.61625 10.875 6.46425C10.875 3.93225 8.8575 1.875 6 1.875ZM3.5625 13.5H8.4375C8.58668 13.5 8.72976 13.5593 8.83525 13.6648C8.94074 13.7702 9 13.9133 9 14.0625C9 14.2117 8.94074 14.3548 8.83525 14.4602C8.72976 14.5657 8.58668 14.625 8.4375 14.625H3.5625C3.41332 14.625 3.27024 14.5657 3.16475 14.4602C3.05926 14.3548 3 14.2117 3 14.0625C3 13.9133 3.05926 13.7702 3.16475 13.6648C3.27024 13.5593 3.41332 13.5 3.5625 13.5ZM4.125 16.3125C4.125 16.1633 4.18426 16.0202 4.28975 15.9148C4.39524 15.8093 4.53832 15.75 4.6875 15.75H7.3125C7.46168 15.75 7.60476 15.8093 7.71025 15.9148C7.81574 16.0202 7.875 16.1633 7.875 16.3125C7.875 16.4617 7.81574 16.6048 7.71025 16.7102C7.60476 16.8157 7.46168 16.875 7.3125 16.875H4.6875C4.53832 16.875 4.39524 16.8157 4.28975 16.7102C4.18426 16.6048 4.125 16.4617 4.125 16.3125Z" fill="#333333"/>
</svg>
