<svg width="18" height="18" viewBox="0 0 18 18" fill="none" xmlns="http://www.w3.org/2000/svg">
<path opacity="0.6" d="M11.25 1.5H10.5C8.379 1.5 7.31775 1.5 6.65925 2.15925C6 2.81775 6 3.879 6 6V12C6 14.121 6 15.1823 6.65925 15.8407C7.31775 16.5 8.379 16.5 10.5 16.5H11.25C13.371 16.5 14.4323 16.5 15.0907 15.8407C15.75 15.1823 15.75 14.121 15.75 12V6C15.75 3.879 15.75 2.81775 15.0907 2.15925C14.4323 1.5 13.371 1.5 11.25 1.5Z" fill="black"/>
<path opacity="0.4" d="M6 6C6 4.8465 6 4.00725 6.10575 3.375H6C4.23225 3.375 3.348 3.375 2.799 3.924C2.25 4.473 2.25 5.35725 2.25 7.125V10.875C2.25 12.6427 2.25 13.5262 2.799 14.076C3.348 14.6257 4.23225 14.625 6 14.625H6.10575C6 13.9928 6 13.1535 6 12V6Z" fill="black"/>
<path fill-rule="evenodd" clip-rule="evenodd" d="M3.35249 8.60237C3.24716 8.70784 3.18799 8.85081 3.18799 8.99987C3.18799 9.14893 3.24716 9.2919 3.35249 9.39737L4.85249 10.8974C4.95912 10.9967 5.10016 11.0508 5.24589 11.0483C5.39161 11.0457 5.53065 10.9866 5.63371 10.8836C5.73677 10.7805 5.7958 10.6415 5.79837 10.4958C5.80095 10.35 5.74685 10.209 5.64749 10.1024L5.10749 9.56237H10.5C10.6492 9.56237 10.7923 9.50311 10.8977 9.39762C11.0032 9.29213 11.0625 9.14906 11.0625 8.99987C11.0625 8.85069 11.0032 8.70761 10.8977 8.60212C10.7923 8.49663 10.6492 8.43737 10.5 8.43737H5.10749L5.64749 7.89737C5.70276 7.84587 5.74709 7.78377 5.77783 7.71477C5.80857 7.64578 5.8251 7.57129 5.82644 7.49576C5.82777 7.42024 5.81388 7.34521 5.78559 7.27517C5.75729 7.20513 5.71519 7.14151 5.66177 7.08809C5.60836 7.03468 5.54473 6.99257 5.47469 6.96428C5.40465 6.93599 5.32963 6.92209 5.2541 6.92343C5.17857 6.92476 5.10409 6.94129 5.03509 6.97204C4.96609 7.00278 4.90399 7.04711 4.85249 7.10237L3.35249 8.60237Z" fill="black"/>
</svg>
